<svg width="1921" height="635" viewBox="0 0 1921 635" fill="none" xmlns="http://www.w3.org/2000/svg">
<rect width="1920" height="633.5" transform="translate(0.756958 0.860352)" fill="#692FA3"/>
<g clip-path="url(#clip0_271_699)">
<g clip-path="url(#clip1_271_699)">
<mask id="mask0_271_699" style="mask-type:luminance" maskUnits="userSpaceOnUse" x="-320" y="8" width="2561" height="627">
<path d="M2240.76 8.36035H-319.243V634.36H2240.76V8.36035Z" fill="white"/>
</mask>
<g mask="url(#mask0_271_699)">
<path d="M2240.76 750.384C1962.16 529.784 1833.46 450.384 1602.76 591.284C1340.86 423.284 1241.86 479.784 960.757 654.984C820.257 517.684 766.357 460.684 701.257 546.584C540.957 359.884 452.857 298.784 318.557 461.384C304 478.969 284.692 491.996 262.937 498.911C241.181 505.826 217.895 506.337 195.857 500.384C-6.34306 445.484 -200.643 675.384 -319.243 750.384H2240.76Z" fill="#FFC401"/>
<path d="M2047.16 603.784C2043.16 600.284 2036.96 598.484 2029.56 598.484C2023.28 598.581 2017.05 599.592 2011.06 601.484L2007.06 602.784C2007.18 599.883 2006.84 596.981 2006.06 594.184C2003.86 585.384 1998.06 578.184 1989.36 573.284C1976.36 565.884 1958.06 564.684 1940.56 569.984C1937.14 570.997 1933.79 572.268 1930.56 573.784C1929.06 568.918 1926.98 564.251 1924.36 559.884C1908.66 533.484 1876.06 517.984 1851.66 525.384C1841.26 528.484 1833.46 535.584 1829.76 545.184C1824.96 557.584 1827.06 572.884 1835.66 587.284C1848.36 608.784 1872.76 623.584 1895.16 623.684C1895.36 624.984 1895.56 626.284 1895.86 627.484C1896.51 629.876 1897.41 632.189 1898.56 634.384H1900.86C1899.51 632.073 1898.5 629.581 1897.86 626.984C1897.49 625.539 1897.22 624.068 1897.06 622.584C1897.04 622.337 1896.92 622.107 1896.73 621.941C1896.55 621.775 1896.31 621.683 1896.06 621.684H1895.36C1873.56 621.684 1849.76 607.184 1837.36 586.284C1829.16 572.384 1827.06 557.684 1831.56 545.884C1835.06 536.884 1842.46 530.284 1852.26 527.284C1875.76 520.184 1907.36 535.284 1922.66 560.884C1925.36 565.469 1927.48 570.374 1928.96 575.484C1929.08 575.751 1929.29 575.964 1929.56 576.084C1929.82 576.185 1930.1 576.185 1930.36 576.084C1933.84 574.392 1937.45 572.988 1941.16 571.884C1958.16 566.784 1975.76 567.884 1988.36 574.984C1996.56 579.684 2002.06 586.484 2004.16 594.684C2004.98 597.779 2005.25 600.995 2004.96 604.184C2004.97 604.525 2005.11 604.848 2005.36 605.084C2005.5 605.199 2005.67 605.269 2005.84 605.287C2006.02 605.305 2006.2 605.269 2006.36 605.184L2011.66 603.384C2026.26 598.984 2039.36 599.684 2045.86 605.284C2049.36 608.184 2050.76 612.284 2050.06 617.084C2049.36 621.884 2046.06 628.684 2040.96 634.384H2043.56C2048.26 628.784 2051.36 622.884 2052.06 617.384C2052.76 611.884 2051.16 607.084 2047.16 603.784Z" fill="#808AFF"/>
<path d="M496.258 200.66C518.358 189.46 533.958 198.16 533.958 198.16C544.858 194.76 554.558 197.16 559.458 200.96C562.558 203.46 555.658 202.96 540.058 202.96H496.758C496.44 202.96 496.134 202.834 495.909 202.609C495.684 202.384 495.558 202.078 495.558 201.76C495.556 201.529 495.621 201.302 495.745 201.107C495.87 200.912 496.047 200.756 496.258 200.66Z" fill="#FFC401"/>
<path d="M93.7579 218.46C87.7589 218.463 81.8509 219.92 76.5389 222.706C71.2269 225.493 66.6689 229.526 63.2579 234.46C49.9089 228.379 35.0959 226.258 20.5769 228.35C6.0589 230.442 -7.55309 236.658 -18.6421 246.26H129.658C127.582 238.313 122.935 231.276 116.441 226.248C109.947 221.219 101.971 218.481 93.7579 218.46Z" fill="#FFC401"/>
<path d="M1846.36 291.86C1848.87 291.887 1851.36 291.358 1853.64 290.311C1855.92 289.263 1857.94 287.723 1859.56 285.801C1861.17 283.88 1862.34 281.624 1862.98 279.196C1863.62 276.768 1863.72 274.229 1863.26 271.76C1858.47 245.916 1845.39 222.334 1826.02 204.574C1806.64 186.814 1782.01 175.841 1755.85 173.312C1729.68 170.782 1703.41 176.834 1680.99 190.553C1658.57 204.272 1641.22 224.913 1631.56 249.36C1622.62 247.431 1613.5 246.458 1604.36 246.46C1586.79 246.431 1569.4 250.072 1553.32 257.149C1537.24 264.226 1522.81 274.584 1510.96 287.56C1510.64 287.933 1510.43 288.389 1510.36 288.876C1510.28 289.363 1510.35 289.861 1510.55 290.312C1510.75 290.762 1511.07 291.147 1511.48 291.421C1511.89 291.695 1512.37 291.847 1512.86 291.86H1846.36Z" fill="#FFC401"/>
<path d="M1401.36 633.76H1399.36C1400.16 611.16 1395.96 596.46 1386.46 588.96C1376.96 581.46 1361.06 580.96 1338.76 587.86C1338.49 587.929 1338.2 587.893 1337.96 587.76C1337.71 587.597 1337.53 587.347 1337.46 587.06C1336.84 583.04 1335.19 579.249 1332.66 576.058C1330.14 572.868 1326.83 570.388 1323.06 568.86C1313.46 564.96 1301.56 567.16 1291.36 574.66C1266.56 592.76 1269.26 625.16 1269.26 625.46C1269.26 625.666 1269.21 625.869 1269.1 626.046C1269 626.223 1268.84 626.366 1268.66 626.46C1268.48 626.556 1268.28 626.588 1268.08 626.552C1267.88 626.515 1267.69 626.413 1267.56 626.26C1254.66 614.76 1245.66 610.26 1238.36 611.56C1231.06 612.86 1224.46 620.66 1216.96 633.76H1214.66C1222.76 619.56 1229.36 611.06 1237.96 609.56C1246.56 608.06 1254.66 612.46 1267.16 623.26C1267.06 615.26 1268.46 588.96 1290.16 573.06C1300.96 565.16 1313.56 562.86 1323.76 567.06C1327.69 568.593 1331.17 571.091 1333.88 574.325C1336.59 577.558 1338.44 581.422 1339.26 585.56C1361.66 578.86 1377.46 579.46 1387.66 587.46C1397.86 595.46 1402.16 610.46 1401.36 633.76Z" fill="#808AFF"/>
<path d="M277.257 284.26C275.688 283.278 274.356 281.962 273.353 280.407C272.351 278.851 271.703 277.094 271.457 275.26L270.457 268.86C270.433 268.719 270.359 268.591 270.249 268.499C270.139 268.407 270 268.358 269.857 268.36C269.713 268.358 269.574 268.407 269.464 268.499C269.354 268.591 269.28 268.719 269.257 268.86L268.257 275.26C267.991 277.088 267.335 278.838 266.334 280.39C265.334 281.943 264.011 283.263 262.457 284.26L261.657 284.76C261.561 284.802 261.48 284.872 261.426 284.962C261.372 285.052 261.348 285.156 261.357 285.26C261.348 285.364 261.372 285.469 261.426 285.558C261.48 285.648 261.561 285.719 261.657 285.76L262.457 286.26C264.006 287.288 265.322 288.628 266.321 290.196C267.32 291.763 267.979 293.522 268.257 295.36L269.257 301.66C269.28 301.801 269.354 301.929 269.464 302.021C269.574 302.113 269.713 302.162 269.857 302.16C270 302.162 270.139 302.113 270.249 302.021C270.359 301.929 270.433 301.801 270.457 301.66L271.457 295.36C271.715 293.517 272.367 291.75 273.368 290.18C274.368 288.61 275.695 287.273 277.257 286.26L278.057 285.76C278.153 285.719 278.233 285.648 278.287 285.558C278.341 285.469 278.365 285.364 278.357 285.26C278.365 285.156 278.341 285.052 278.287 284.962C278.233 284.872 278.153 284.802 278.057 284.76L277.257 284.26Z" fill="#91FFAD"/>
<path d="M1372.86 185.46C1370.21 183.745 1367.96 181.484 1366.25 178.828C1364.54 176.173 1363.42 173.183 1362.96 170.06L1361.36 159.26C1361.3 159.013 1361.16 158.792 1360.96 158.63C1360.76 158.468 1360.51 158.373 1360.26 158.36C1360 158.356 1359.75 158.444 1359.54 158.609C1359.34 158.773 1359.21 159.004 1359.16 159.26L1357.56 170.06C1357.08 173.19 1355.94 176.182 1354.22 178.837C1352.49 181.492 1350.22 183.75 1347.56 185.46L1346.16 186.36C1346.01 186.464 1345.89 186.598 1345.81 186.754C1345.72 186.909 1345.67 187.082 1345.66 187.26C1345.66 187.44 1345.71 187.615 1345.8 187.772C1345.88 187.929 1346.01 188.062 1346.16 188.16L1347.56 189.06C1350.23 190.791 1352.5 193.067 1354.22 195.738C1355.94 198.41 1357.08 201.417 1357.56 204.56L1359.16 215.36C1359.21 215.616 1359.34 215.847 1359.54 216.012C1359.75 216.176 1360 216.264 1360.26 216.26C1360.51 216.247 1360.76 216.152 1360.96 215.991C1361.16 215.829 1361.3 215.608 1361.36 215.36L1362.96 204.56C1363.42 201.423 1364.54 198.419 1366.25 195.747C1367.95 193.075 1370.21 190.796 1372.86 189.06L1374.36 188.16C1374.5 188.057 1374.61 187.921 1374.68 187.763C1374.75 187.605 1374.78 187.432 1374.76 187.26C1374.77 187.089 1374.74 186.919 1374.67 186.763C1374.6 186.607 1374.49 186.469 1374.36 186.36L1372.86 185.46Z" fill="#3F99F2"/>
<path d="M1864.46 418.46C1862.31 417.065 1860.49 415.228 1859.11 413.073C1857.73 410.917 1856.83 408.493 1856.46 405.96L1855.06 397.26C1855.06 397.048 1854.98 396.844 1854.83 396.694C1854.68 396.544 1854.47 396.46 1854.26 396.46C1854.04 396.459 1853.82 396.54 1853.66 396.687C1853.49 396.835 1853.38 397.039 1853.36 397.26L1852.06 405.96C1851.67 408.499 1850.75 410.927 1849.36 413.082C1847.96 415.237 1846.12 417.07 1843.96 418.46L1842.86 419.16C1842.75 419.243 1842.65 419.348 1842.59 419.468C1842.52 419.589 1842.47 419.722 1842.46 419.86C1842.46 420.002 1842.49 420.141 1842.57 420.264C1842.64 420.387 1842.74 420.489 1842.86 420.56L1843.96 421.26C1846.11 422.659 1847.94 424.495 1849.34 426.649C1850.73 428.802 1851.66 431.225 1852.06 433.76L1853.36 442.46C1853.38 442.681 1853.49 442.885 1853.66 443.033C1853.82 443.181 1854.04 443.262 1854.26 443.26C1854.47 443.26 1854.68 443.176 1854.83 443.026C1854.98 442.876 1855.06 442.672 1855.06 442.46L1856.46 433.76C1856.84 431.232 1857.75 428.811 1859.13 426.658C1860.51 424.504 1862.32 422.665 1864.46 421.26L1865.56 420.56C1865.69 420.499 1865.8 420.399 1865.87 420.273C1865.94 420.148 1865.97 420.004 1865.96 419.86C1865.96 419.718 1865.92 419.579 1865.85 419.456C1865.78 419.333 1865.68 419.231 1865.56 419.16L1864.46 418.46Z" fill="#404EED"/>
<path d="M581.657 422.06C580.844 421.543 580.154 420.854 579.636 420.042C579.118 419.231 578.783 418.315 578.657 417.36L578.157 414.16C578.157 414.081 578.125 414.004 578.069 413.948C578.013 413.892 577.936 413.86 577.857 413.86C577.777 413.86 577.701 413.892 577.645 413.948C577.588 414.004 577.557 414.081 577.557 414.16L577.057 417.36C576.93 418.315 576.596 419.231 576.077 420.042C575.559 420.854 574.869 421.543 574.057 422.06L573.557 422.36C573.457 422.36 573.457 422.56 573.457 422.66C573.452 422.714 573.459 422.769 573.476 422.82C573.493 422.872 573.52 422.92 573.557 422.96L574.057 423.16C574.848 423.701 575.522 424.396 576.037 425.203C576.553 426.011 576.9 426.915 577.057 427.86L577.557 431.16C577.557 431.24 577.588 431.316 577.645 431.372C577.701 431.428 577.777 431.46 577.857 431.46C577.936 431.46 578.013 431.428 578.069 431.372C578.125 431.316 578.157 431.24 578.157 431.16L578.657 427.86C578.814 426.915 579.16 426.011 579.676 425.203C580.192 424.396 580.865 423.701 581.657 423.16L582.157 422.96C582.193 422.92 582.22 422.872 582.238 422.82C582.255 422.769 582.261 422.714 582.257 422.66C582.257 422.56 582.257 422.36 582.157 422.36L581.657 422.06Z" fill="#F26666"/>
<path d="M623.857 550.36C623.442 550.113 623.085 549.779 622.809 549.383C622.533 548.986 622.345 548.535 622.257 548.06L622.057 546.36H621.757L621.457 548.06C621.386 548.529 621.216 548.977 620.957 549.374C620.698 549.771 620.357 550.107 619.957 550.36L619.757 550.56C619.73 550.56 619.705 550.571 619.686 550.59C619.667 550.608 619.657 550.634 619.657 550.66C619.657 550.687 619.667 550.712 619.686 550.731C619.705 550.75 619.73 550.76 619.757 550.76L619.957 550.96C620.357 551.213 620.698 551.55 620.957 551.947C621.216 552.344 621.386 552.792 621.457 553.26L621.757 554.96H622.057L622.257 553.26C622.345 552.785 622.533 552.334 622.809 551.938C623.085 551.541 623.442 551.208 623.857 550.96L624.057 550.76L623.857 550.36Z" fill="#FFC619"/>
<path d="M1046.56 540.96C1045.66 540.353 1044.9 539.57 1044.32 538.659C1043.73 537.748 1043.34 536.728 1043.16 535.66L1042.66 532.06C1042.66 531.86 1042.46 531.76 1042.26 531.76C1042.22 531.76 1042.18 531.768 1042.14 531.783C1042.11 531.798 1042.08 531.82 1042.05 531.848C1042.02 531.876 1042 531.909 1041.98 531.945C1041.97 531.982 1041.96 532.021 1041.96 532.06L1041.36 535.66C1041.22 536.729 1040.86 537.755 1040.29 538.67C1039.72 539.584 1038.96 540.366 1038.06 540.96L1037.56 541.26C1037.46 541.26 1037.36 541.36 1037.36 541.56C1037.36 541.66 1037.46 541.76 1037.56 541.86L1038.06 542.16C1038.94 542.749 1039.69 543.515 1040.26 544.411C1040.83 545.306 1041.2 546.311 1041.36 547.36L1041.96 550.96C1041.96 551.04 1041.99 551.116 1042.05 551.172C1042.1 551.229 1042.18 551.26 1042.26 551.26C1042.46 551.26 1042.66 551.16 1042.66 550.96L1043.16 547.36C1043.35 546.31 1043.75 545.31 1044.33 544.417C1044.92 543.524 1045.67 542.756 1046.56 542.16L1047.06 541.86C1047.1 541.82 1047.12 541.772 1047.14 541.72C1047.16 541.669 1047.16 541.614 1047.16 541.56C1047.16 541.36 1047.16 541.26 1047.06 541.26L1046.56 540.96Z" fill="#91FFAD"/>
<path d="M10.8569 517.36C9.89493 516.71 9.07893 515.868 8.45993 514.887C7.83993 513.906 7.42993 512.807 7.25693 511.66L6.65692 507.66C6.55692 507.46 6.45693 507.26 6.25693 507.26C6.15093 507.26 6.04894 507.302 5.97394 507.377C5.89894 507.452 5.85693 507.554 5.85693 507.66L5.25693 511.66C5.06493 512.814 4.63792 513.915 4.00092 514.896C3.36392 515.877 2.53192 516.716 1.55692 517.36L0.95694 517.66C0.85694 517.76 0.856934 517.86 0.856934 518.06C0.856934 518.16 0.85694 518.36 0.95694 518.36L1.55692 518.76C2.54092 519.395 3.37894 520.232 4.01694 521.214C4.65394 522.197 5.07693 523.303 5.25693 524.46L5.85693 528.46C5.85693 528.66 6.05693 528.76 6.25693 528.76C6.45693 528.76 6.55692 528.66 6.65692 528.46L7.25693 524.46C7.41793 523.309 7.82294 522.206 8.44394 521.223C9.06394 520.24 9.88693 519.401 10.8569 518.76L11.4569 518.36C11.5569 518.36 11.6569 518.16 11.6569 518.06C11.6569 517.983 11.6389 517.906 11.6039 517.837C11.5689 517.767 11.5189 517.707 11.4569 517.66L10.8569 517.36Z" fill="#F26666"/>
</g>
</g>
</g>
<defs>
<clipPath id="clip0_271_699">
<rect width="1920" height="633.5" fill="white" transform="translate(0.756958 0.860352)"/>
</clipPath>
<clipPath id="clip1_271_699">
<rect width="2560" height="626" fill="white" transform="translate(-319.243 8.36035)"/>
</clipPath>
</defs>
</svg>
