<?xml version="1.0" standalone="no"?>
<!DOCTYPE svg PUBLIC "-//W3C//DTD SVG 20010904//EN"
 "http://www.w3.org/TR/2001/REC-SVG-20010904/DTD/svg10.dtd">
<svg version="1.0" xmlns="http://www.w3.org/2000/svg"
 width="500.000000pt" height="500.000000pt" viewBox="0 0 500.000000 500.000000"
 preserveAspectRatio="xMidYMid meet">

<g transform="translate(0.000000,500.000000) scale(0.100000,-0.100000)"
fill="#000000" stroke="none">
<path d="M3370 2348 c0 -106 5 -209 10 -229 17 -61 52 -102 110 -132 49 -26
63 -28 127 -24 57 3 81 10 113 31 l40 26 0 -25 0 -25 110 0 110 0 0 285 0 286
-117 -3 -118 -3 -5 -166 c-4 -146 -7 -170 -24 -188 -25 -28 -77 -28 -102 0
-17 19 -19 41 -23 190 l-3 169 -114 0 -114 0 0 -192z"/>
</g>
</svg>
