<svg width="41" height="55" viewBox="0 0 41 55" fill="none" xmlns="http://www.w3.org/2000/svg">
<g clip-path="url(#clip0_1186_1275)">
<g filter="url(#filter0_d_1186_1275)">
<path d="M18.3931 53.9C2.87911 31.2629 0 28.9414 0 20.625C0 9.23313 9.17717 0 20.5 0C31.8228 0 41 9.23313 41 20.625C41 28.9414 38.1209 31.2583 22.6069 53.8908C22.3713 54.2322 22.0573 54.5113 21.6914 54.7043C21.3256 54.8973 20.9189 54.9986 20.5058 54.9995C20.0927 55.0004 19.6855 54.9009 19.3189 54.7095C18.9522 54.518 18.637 54.2403 18.3999 53.9L18.3953 53.8908L18.3931 53.9Z" fill="#5FC0EB"/>
</g>
<path fill-rule="evenodd" clip-rule="evenodd" d="M17.2505 14.015V13C17.2505 12.0054 17.6456 11.0516 18.3488 10.3483C19.0521 9.64509 20.0059 9.25 21.0005 9.25C21.995 9.25 22.9489 9.64509 23.6521 10.3483C24.3554 11.0516 24.7505 12.0054 24.7505 13V14.015C26.0375 14.054 26.8255 14.192 27.4265 14.691C28.2595 15.383 28.4795 16.553 28.9185 18.894L29.6685 22.894C30.2855 26.186 30.5935 27.832 29.6945 28.916C28.7945 30 27.1195 30 23.7705 30H18.2305C14.8805 30 13.2065 30 12.3065 28.916C11.4065 27.832 11.7165 26.186 12.3325 22.894L13.0825 18.894C13.5225 16.554 13.7415 15.383 14.5745 14.691C15.1755 14.192 15.9635 14.054 17.2505 14.015ZM18.7505 13C18.7505 12.4033 18.9875 11.831 19.4095 11.409C19.8314 10.9871 20.4037 10.75 21.0005 10.75C21.5972 10.75 22.1695 10.9871 22.5915 11.409C23.0134 11.831 23.2505 12.4033 23.2505 13V14H18.7505V13Z" fill="#FAFAF8"/>
<g clip-path="url(#clip1_1186_1275)">
<path d="M15.7315 15.6368C15.7502 15.3592 15.8784 15.1004 16.0879 14.9174C16.2974 14.7343 16.5711 14.642 16.8487 14.6607C17.1262 14.6794 17.385 14.8076 17.5681 15.0171C17.7511 15.2266 17.8434 15.5003 17.8247 15.7778C17.806 16.0554 17.6778 16.3142 17.4683 16.4973C17.2588 16.6803 16.9852 16.7726 16.7076 16.7539C16.43 16.7352 16.1712 16.607 15.9882 16.3975C15.8051 16.188 15.7128 15.9144 15.7315 15.6368ZM11.7878 26.5224L18.4906 20.666C18.7587 20.4317 18.9357 20.0932 18.9616 19.7094L19.2907 14.8253C19.3429 14.0508 18.7638 13.388 17.9893 13.3358L13.1051 13.0066C12.7214 12.9808 12.3622 13.1108 12.0936 13.352L5.39126 19.2015C5.12268 19.4427 4.93869 19.7808 4.91283 20.1645C4.88697 20.5483 5.02394 20.908 5.2582 21.1761L9.81322 26.3894C10.047 26.6645 10.3855 26.8415 10.7693 26.8673C11.16 26.8937 11.5197 26.7567 11.7878 26.5224Z" fill="#FF530B"/>
</g>
</g>
<defs>
<filter id="filter0_d_1186_1275" x="-4" y="0" width="49" height="62.9995" filterUnits="userSpaceOnUse" color-interpolation-filters="sRGB">
<feFlood flood-opacity="0" result="BackgroundImageFix"/>
<feColorMatrix in="SourceAlpha" type="matrix" values="0 0 0 0 0 0 0 0 0 0 0 0 0 0 0 0 0 0 127 0" result="hardAlpha"/>
<feOffset dy="4"/>
<feGaussianBlur stdDeviation="2"/>
<feComposite in2="hardAlpha" operator="out"/>
<feColorMatrix type="matrix" values="0 0 0 0 0 0 0 0 0 0 0 0 0 0 0 0 0 0 0.25 0"/>
<feBlend mode="normal" in2="BackgroundImageFix" result="effect1_dropShadow_1186_1275"/>
<feBlend mode="normal" in="SourceGraphic" in2="effect1_dropShadow_1186_1275" result="shape"/>
</filter>
<clipPath id="clip0_1186_1275">
<rect width="41" height="55" fill="white"/>
</clipPath>
<clipPath id="clip1_1186_1275">
<rect width="16.7837" height="16.7837" fill="white" transform="translate(20.875 12.1284) rotate(93.8552)"/>
</clipPath>
</defs>
</svg>
