<svg width="192" height="192" viewBox="0 0 192 192" fill="none" xmlns="http://www.w3.org/2000/svg">
<circle cx="96" cy="96" r="96" fill="#FF530B"/>
<path d="M61.375 137C57.375 137 56.5833 135.208 59 131.625L86.6875 90.75L61.25 52.75C58.8333 49.1667 59.625 47.375 63.625 47.375H76.25C78.4583 47.375 80.3333 48.6042 81.875 51.0625L98.9375 78.0625L116 51.0625C117.542 48.6042 119.417 47.375 121.625 47.375H134.25C138.25 47.375 139.042 49.1667 136.625 52.75L111.125 90.75L138.875 131.625C141.292 135.208 140.5 137 136.5 137H123.688C121.521 137 119.646 135.771 118.062 133.312L98.9375 103.438L79.8125 133.312C78.2292 135.771 76.3542 137 74.1875 137H61.375Z" fill="white"/>
</svg>
