<svg width="20" height="15" viewBox="0 0 20 15" fill="none" xmlns="http://www.w3.org/2000/svg">
<path d="M18.9975 0.0267505L0.997474 0.0267489C0.815233 0.0273202 0.636598 0.0775834 0.480798 0.172127C0.324998 0.266671 0.197933 0.401914 0.113279 0.563301C0.0286248 0.724689 -0.0104118 0.906109 0.000371242 1.08803C0.0111543 1.26995 0.071348 1.44549 0.174474 1.59575L9.17447 14.5957C9.54747 15.1347 10.4455 15.1347 10.8195 14.5957L19.8195 1.59575C19.9236 1.44581 19.9847 1.27018 19.9961 1.08796C20.0075 0.90573 19.9687 0.723873 19.884 0.562143C19.7992 0.400414 19.6718 0.264997 19.5155 0.170607C19.3592 0.0762164 19.1801 0.0264629 18.9975 0.0267505Z" fill="#FF530B"/>
</svg>
