<svg width="20" height="15" viewBox="0 0 20 15" fill="none" xmlns="http://www.w3.org/2000/svg">
<g clip-path="url(#clip0_267_729)">
<path d="M18.9975 0.0268571L0.997516 0.0268555C0.815275 0.0274268 0.63664 0.07769 0.48084 0.172234C0.32504 0.266778 0.197975 0.402021 0.113321 0.563408C0.0286666 0.724796 -0.01037 0.906216 0.000413013 1.08814C0.0111961 1.27006 0.0713898 1.4456 0.174516 1.59586L9.17451 14.5958C9.54751 15.1348 10.4455 15.1348 10.8195 14.5958L19.8195 1.59586C19.9236 1.44592 19.9847 1.27029 19.9961 1.08807C20.0075 0.905837 19.9687 0.72398 19.884 0.56225C19.7992 0.400521 19.6718 0.265104 19.5155 0.170714C19.3592 0.076323 19.1801 0.0265695 18.9975 0.0268571Z" fill="#FFC401"/>
</g>
<defs>
<clipPath id="clip0_267_729">
<rect width="20" height="15" fill="white"/>
</clipPath>
</defs>
</svg>
