<svg width="20" height="15" viewBox="0 0 20 15" fill="none" xmlns="http://www.w3.org/2000/svg">
<g clip-path="url(#clip0_267_793)">
<path d="M0.999597 15.0001H18.9996C19.1818 14.9995 19.3605 14.9493 19.5163 14.8547C19.6721 14.7602 19.7991 14.6249 19.8838 14.4636C19.9684 14.3022 20.0075 14.1207 19.9967 13.9388C19.9859 13.7569 19.9257 13.5814 19.8226 13.4311L10.8226 0.431105C10.4496 -0.107895 9.5516 -0.107895 9.1776 0.431105L0.177597 13.4311C0.073422 13.581 0.0123313 13.7567 0.000962361 13.9389C-0.0104066 14.1211 0.0283811 14.303 0.113111 14.4647C0.197841 14.6264 0.325273 14.7619 0.481561 14.8562C0.63785 14.9506 0.817017 15.0004 0.999597 15.0001Z" fill="#FFC401"/>
</g>
<defs>
<clipPath id="clip0_267_793">
<rect width="20" height="15" fill="white"/>
</clipPath>
</defs>
</svg>
