<svg width="24" height="24" viewBox="0 0 24 24" fill="none" xmlns="http://www.w3.org/2000/svg">
<path d="M1.3335 20C1.3335 18.5855 1.8954 17.229 2.89559 16.2288C3.89579 15.2286 5.25234 14.6667 6.66683 14.6667H17.3335C18.748 14.6667 20.1045 15.2286 21.1047 16.2288C22.1049 17.229 22.6668 18.5855 22.6668 20C22.6668 20.7073 22.3859 21.3855 21.8858 21.8856C21.3857 22.3857 20.7074 22.6667 20.0002 22.6667H4.00016C3.29292 22.6667 2.61464 22.3857 2.11454 21.8856C1.61445 21.3855 1.3335 20.7073 1.3335 20Z" stroke="#FF530B" stroke-width="2" stroke-linejoin="round"/>
<path d="M12 9.33334C14.2091 9.33334 16 7.54248 16 5.33334C16 3.1242 14.2091 1.33334 12 1.33334C9.79086 1.33334 8 3.1242 8 5.33334C8 7.54248 9.79086 9.33334 12 9.33334Z" stroke="#FF530B" stroke-width="2"/>
</svg>
