<svg width="39" height="37" viewBox="0 0 39 37" fill="none" xmlns="http://www.w3.org/2000/svg">
<g clip-path="url(#clip0_267_739)">
<mask id="mask0_267_739" style="mask-type:luminance" maskUnits="userSpaceOnUse" x="0" y="0" width="39" height="37">
<path d="M39 0H0V37H39V0Z" fill="white"/>
</mask>
<g mask="url(#mask0_267_739)">
<path d="M31.5457 0.272705L31.2272 11.9851H28.2378L27.9111 0.272705H31.5457ZM29.7325 17.2124C29.1934 17.2124 28.7306 17.0218 28.344 16.6406C27.9574 16.254 27.7668 15.7912 27.7723 15.2521C27.7668 14.7185 27.9574 14.2611 28.344 13.88C28.7306 13.4988 29.1934 13.3082 29.7325 13.3082C30.2498 13.3082 30.7044 13.4988 31.0965 13.88C31.4885 14.2611 31.6873 14.7185 31.6927 15.2521C31.6873 15.6115 31.592 15.9409 31.4069 16.2404C31.2272 16.5344 30.9903 16.7713 30.6963 16.951C30.4022 17.1252 30.081 17.2124 29.7325 17.2124Z" fill="#B51BF2"/>
<path d="M0 9.875C0 9.64294 0.0921873 9.42038 0.256282 9.25628C0.420376 9.09219 0.642936 9 0.875 9H3.5C3.69518 9.00005 3.88474 9.06536 4.03853 9.18554C4.19232 9.30572 4.30152 9.47387 4.34875 9.66325L5.0575 12.5H25.375C25.5079 12.5 25.6391 12.5304 25.7585 12.5886C25.878 12.6469 25.9826 12.7317 26.0644 12.8364C26.1462 12.9412 26.203 13.0632 26.2307 13.1932C26.2583 13.3232 26.2559 13.4578 26.2237 13.5867L23.5987 24.0868C23.5515 24.2761 23.4423 24.4443 23.2885 24.5645C23.1347 24.6846 22.9452 24.7499 22.75 24.75H7C6.80482 24.7499 6.61526 24.6846 6.46147 24.5645C6.30768 24.4443 6.19848 24.2761 6.15125 24.0868L2.8175 10.75H0.875C0.642936 10.75 0.420376 10.6578 0.256282 10.4937C0.0921873 10.3296 0 10.1071 0 9.875ZM5.495 14.25L7.6825 23H22.0675L24.255 14.25H5.495ZM8.75 28.25C8.28587 28.25 7.84075 28.4344 7.51256 28.7626C7.18438 29.0908 7 29.5359 7 30C7 30.4641 7.18438 30.9092 7.51256 31.2374C7.84075 31.5656 8.28587 31.75 8.75 31.75C9.21413 31.75 9.65925 31.5656 9.98744 31.2374C10.3156 30.9092 10.5 30.4641 10.5 30C10.5 29.5359 10.3156 29.0908 9.98744 28.7626C9.65925 28.4344 9.21413 28.25 8.75 28.25ZM5.25 30C5.25 29.0717 5.61875 28.1815 6.27513 27.5251C6.9315 26.8688 7.82174 26.5 8.75 26.5C9.67826 26.5 10.5685 26.8688 11.2249 27.5251C11.8813 28.1815 12.25 29.0717 12.25 30C12.25 30.9283 11.8813 31.8185 11.2249 32.4749C10.5685 33.1312 9.67826 33.5 8.75 33.5C7.82174 33.5 6.9315 33.1312 6.27513 32.4749C5.61875 31.8185 5.25 30.9283 5.25 30ZM21 28.25C20.5359 28.25 20.0908 28.4344 19.7626 28.7626C19.4344 29.0908 19.25 29.5359 19.25 30C19.25 30.4641 19.4344 30.9092 19.7626 31.2374C20.0908 31.5656 20.5359 31.75 21 31.75C21.4641 31.75 21.9092 31.5656 22.2374 31.2374C22.5656 30.9092 22.75 30.4641 22.75 30C22.75 29.5359 22.5656 29.0908 22.2374 28.7626C21.9092 28.4344 21.4641 28.25 21 28.25ZM17.5 30C17.5 29.0717 17.8688 28.1815 18.5251 27.5251C19.1815 26.8688 20.0717 26.5 21 26.5C21.9283 26.5 22.8185 26.8688 23.4749 27.5251C24.1312 28.1815 24.5 29.0717 24.5 30C24.5 30.9283 24.1312 31.8185 23.4749 32.4749C22.8185 33.1312 21.9283 33.5 21 33.5C20.0717 33.5 19.1815 33.1312 18.5251 32.4749C17.8688 31.8185 17.5 30.9283 17.5 30Z" fill="#FFC401"/>
</g>
</g>
<defs>
<clipPath id="clip0_267_739">
<rect width="39" height="37" fill="white"/>
</clipPath>
</defs>
</svg>
