<svg width="27" height="25" viewBox="0 0 27 25" fill="none" xmlns="http://www.w3.org/2000/svg">
<g clip-path="url(#clip0_2072_1725)">
<mask id="mask0_2072_1725" style="mask-type:luminance" maskUnits="userSpaceOnUse" x="0" y="0" width="27" height="25">
<path d="M27 0H0V25H27V0Z" fill="white"/>
</mask>
<g mask="url(#mask0_2072_1725)">
<path d="M0 1.375C0 1.14294 0.0921872 0.920376 0.256282 0.756282C0.420376 0.592187 0.642936 0.5 0.875 0.5H3.5C3.69518 0.500054 3.88474 0.565364 4.03853 0.685543C4.19232 0.805723 4.30152 0.973872 4.34875 1.16325L5.0575 4H25.375C25.5079 4.00004 25.6391 4.03035 25.7585 4.08864C25.878 4.14693 25.9826 4.23167 26.0644 4.33642C26.1462 4.44117 26.203 4.56318 26.2307 4.69319C26.2583 4.8232 26.2559 4.95779 26.2237 5.08675L23.5987 15.5868C23.5515 15.7761 23.4423 15.9443 23.2885 16.0645C23.1347 16.1846 22.9452 16.2499 22.75 16.25H7C6.80482 16.2499 6.61526 16.1846 6.46147 16.0645C6.30768 15.9443 6.19848 15.7761 6.15125 15.5868L2.8175 2.25H0.875C0.642936 2.25 0.420376 2.15781 0.256282 1.99372C0.0921872 1.82962 0 1.60706 0 1.375ZM5.495 5.75L7.6825 14.5H22.0675L24.255 5.75H5.495ZM8.75 19.75C8.28587 19.75 7.84075 19.9344 7.51256 20.2626C7.18437 20.5908 7 21.0359 7 21.5C7 21.9641 7.18437 22.4092 7.51256 22.7374C7.84075 23.0656 8.28587 23.25 8.75 23.25C9.21413 23.25 9.65925 23.0656 9.98744 22.7374C10.3156 22.4092 10.5 21.9641 10.5 21.5C10.5 21.0359 10.3156 20.5908 9.98744 20.2626C9.65925 19.9344 9.21413 19.75 8.75 19.75ZM5.25 21.5C5.25 20.5717 5.61875 19.6815 6.27513 19.0251C6.9315 18.3687 7.82174 18 8.75 18C9.67826 18 10.5685 18.3687 11.2249 19.0251C11.8813 19.6815 12.25 20.5717 12.25 21.5C12.25 22.4283 11.8813 23.3185 11.2249 23.9749C10.5685 24.6313 9.67826 25 8.75 25C7.82174 25 6.9315 24.6313 6.27513 23.9749C5.61875 23.3185 5.25 22.4283 5.25 21.5ZM21 19.75C20.5359 19.75 20.0908 19.9344 19.7626 20.2626C19.4344 20.5908 19.25 21.0359 19.25 21.5C19.25 21.9641 19.4344 22.4092 19.7626 22.7374C20.0908 23.0656 20.5359 23.25 21 23.25C21.4641 23.25 21.9092 23.0656 22.2374 22.7374C22.5656 22.4092 22.75 21.9641 22.75 21.5C22.75 21.0359 22.5656 20.5908 22.2374 20.2626C21.9092 19.9344 21.4641 19.75 21 19.75ZM17.5 21.5C17.5 20.5717 17.8687 19.6815 18.5251 19.0251C19.1815 18.3687 20.0717 18 21 18C21.9283 18 22.8185 18.3687 23.4749 19.0251C24.1313 19.6815 24.5 20.5717 24.5 21.5C24.5 22.4283 24.1313 23.3185 23.4749 23.9749C22.8185 24.6313 21.9283 25 21 25C20.0717 25 19.1815 24.6313 18.5251 23.9749C17.8687 23.3185 17.5 22.4283 17.5 21.5Z" fill="white"/>
</g>
</g>
<defs>
<clipPath id="clip0_2072_1725">
<rect width="27" height="25" fill="white"/>
</clipPath>
</defs>
</svg>
