<svg width="5283" height="5315" viewBox="0 0 5283 5315" fill="none" xmlns="http://www.w3.org/2000/svg">
<path d="M874.77 2953.65C874.77 2953.65 763.727 2983 857.16 3222.7C950.592 3462.39 1019.81 3583.46 1019.81 3583.46C1019.81 3583.46 1035.1 3638.5 989.726 3642.17C944.355 3645.83 847.743 3620.4 822.428 3672.98C797.113 3725.57 831.845 3784.88 910.48 3840.04C989.115 3895.19 1156.78 4022.5 1171.94 4034C1187.11 4045.49 1200.19 4071.66 1169.62 4079.12C1139.05 4086.58 916.105 4087.44 922.832 4193.22C929.558 4299.01 1173.78 4416.78 1200.19 4430.23C1226.61 4443.68 1231.99 4455.91 1228.32 4470.71C1224.65 4485.51 1149.57 4478.9 1086.09 4481.72C1022.62 4484.53 949.614 4498.96 958.664 4559.62C967.714 4620.28 1105.42 4759.93 1466.18 4832.21L1635.68 4854.84L1742.69 4720.31C1954.02 4418.86 1957.44 4222.94 1922.1 4172.8C1886.75 4122.66 1824.26 4162.53 1775.96 4204.23C1727.65 4245.93 1678.12 4302.07 1665.89 4294.48C1653.66 4286.9 1648.28 4273.57 1658.19 4245.57C1668.09 4217.56 1763.73 3964.29 1695.61 3882.72C1627.49 3801.15 1465.45 3954.75 1438.18 3970.28C1410.91 3985.81 1402.47 3958.05 1405.4 3939.22C1408.34 3920.39 1442.09 3712.61 1460.93 3618.44C1479.76 3524.27 1465.94 3458.11 1409.32 3436.71C1354.77 3416.17 1302.43 3501.28 1266.97 3529.9C1231.5 3558.52 1204.72 3508.13 1204.72 3508.13C1204.72 3508.13 1171.33 3372.75 1073.62 3134.77C975.907 2896.78 872.936 2954.02 872.936 2954.02" fill="#EBEBEB"/>
<path d="M1640.45 4895.68C1569.4 4720.68 1448.08 4407.36 1342.79 4138.92C1237.49 3870.49 1141.86 3627.73 1071.66 3452.36C1036.44 3364.92 1008.07 3293.38 988.257 3244.46L965.633 3187.96L959.885 3173.29C959.179 3171.61 958.566 3169.9 958.051 3168.15C958.051 3168.15 958.907 3169.74 960.374 3173.05C961.842 3176.35 963.921 3181.36 966.611 3187.6L990.214 3243.73C1010.51 3292.65 1039.13 3363.21 1075.09 3450.78C1146.14 3625.78 1242.38 3868.41 1347.8 4136.85C1453.22 4405.28 1573.68 4718.72 1644 4894.09" fill="#E0E0E0"/>
<path d="M956.094 3714.08C960.081 3715.15 963.936 3716.67 967.589 3718.6C974.927 3721.78 985.322 3726.67 998.041 3732.79C1023.6 3745.02 1058.45 3763.24 1096.61 3783.91L1194.45 3836.98L1224.04 3852.76C1227.81 3854.48 1231.38 3856.62 1234.68 3859.12C1230.69 3857.97 1226.81 3856.5 1223.06 3854.71C1215.85 3851.53 1205.45 3846.52 1192.73 3840.28C1167.3 3828.05 1132.69 3809.1 1094.9 3788.55L997.062 3736.21L967.467 3720.43C963.402 3718.85 959.575 3716.71 956.094 3714.08Z" fill="#E0E0E0"/>
<path d="M1246.91 3849.33C1245.56 3848.72 1279.56 3775.22 1322.85 3685.21C1366.15 3595.21 1402.22 3522.68 1403.57 3523.3C1404.91 3523.91 1370.92 3597.53 1327.62 3687.54C1284.33 3777.55 1248.25 3850.07 1246.91 3849.33Z" fill="#E0E0E0"/>
<path d="M1390.12 4268.8C1392.42 4265.28 1395.09 4262 1398.07 4259.02L1421.06 4233.46C1440.38 4211.94 1466.92 4181.97 1494.43 4147.85C1521.95 4113.73 1547.02 4082.18 1564.51 4059.07C1572.82 4048.31 1579.67 4039.13 1585.3 4031.8C1587.61 4028.27 1590.32 4025.03 1593.37 4022.13C1591.7 4026.01 1589.57 4029.66 1587.01 4033.02C1582.49 4039.75 1576 4049.53 1567.57 4061.39C1550.81 4084.99 1526.84 4117.16 1498.59 4151.28C1470.34 4185.4 1443.32 4215.11 1423.26 4236.03C1413.23 4246.42 1405.04 4254.86 1398.8 4260.49C1396.21 4263.56 1393.3 4266.35 1390.12 4268.8Z" fill="#E0E0E0"/>
<path d="M1100.16 4204.35C1104.27 4204.27 1108.38 4204.73 1112.39 4205.7L1143.57 4211.32C1169.86 4216.34 1206.19 4223.55 1246.18 4231.99C1286.17 4240.43 1322.24 4248.26 1348.41 4254.13L1379.23 4261.46C1383.11 4262.15 1386.88 4263.3 1390.48 4264.89C1386.37 4264.97 1382.25 4264.52 1378.25 4263.54L1347.07 4257.8C1320.65 4252.78 1284.45 4245.57 1244.46 4237.25C1204.47 4228.93 1168.27 4220.98 1142.23 4214.99L1111.28 4207.78C1107.45 4207.11 1103.71 4205.96 1100.16 4204.35Z" fill="#E0E0E0"/>
<path d="M1179.04 4590.8C1184.06 4590.99 1189.06 4591.65 1193.96 4592.76L1233.95 4599.85C1267.7 4606.09 1314.3 4615.02 1365.54 4625.17C1416.78 4635.32 1463.37 4644.98 1497 4652.19L1536.63 4660.88C1541.55 4661.72 1546.38 4663.03 1551.06 4664.79C1546.08 4664.68 1541.12 4664.07 1536.26 4662.96L1496.27 4655.86C1462.52 4649.63 1415.92 4640.7 1364.56 4630.43C1313.2 4620.15 1266.72 4610.61 1233.22 4603.52L1193.47 4594.72C1188.56 4593.83 1183.73 4592.52 1179.04 4590.8Z" fill="#E0E0E0"/>
<path d="M1543.23 4660.39C1546.08 4656.03 1549.31 4651.94 1552.89 4648.16L1580.77 4614.77C1604.38 4586.52 1636.66 4547.39 1671.15 4503.12C1705.64 4458.85 1735.84 4418.24 1757.49 4388.53L1783.17 4353.31C1786.15 4348.98 1789.46 4344.89 1793.08 4341.08C1790.81 4345.9 1788.06 4350.49 1784.88 4354.77C1779.26 4363.46 1771.06 4375.81 1760.42 4391.46C1739.51 4421.67 1709.8 4462.88 1674.82 4507.15C1639.84 4551.42 1607.43 4590.19 1583.22 4617.95C1570.99 4631.65 1561.09 4642.41 1553.99 4650.24C1550.68 4653.9 1547.08 4657.29 1543.23 4660.39Z" fill="#E0E0E0"/>
<path d="M4259.36 3184.24L3400.63 3703.08C3357.04 3729.41 3343.06 3786.1 3369.39 3829.68L4218.54 5235.12C4244.88 5278.71 4301.56 5292.69 4345.15 5266.36L5203.88 4747.52C5247.47 4721.18 5261.46 4664.5 5235.12 4620.91L4385.97 3215.48C4359.63 3171.89 4302.95 3157.9 4259.36 3184.24Z" fill="#EBEBEB"/>
<path d="M4907.18 4612.45C4885.84 4625.36 4861.15 4631.65 4836.23 4630.52C4811.31 4629.4 4787.29 4620.91 4767.2 4606.13C4747.11 4591.35 4731.85 4570.94 4723.36 4547.49C4714.87 4524.03 4713.53 4498.59 4719.5 4474.37C4725.47 4450.16 4738.49 4428.26 4756.92 4411.44C4775.34 4394.63 4798.33 4383.65 4822.99 4379.91C4847.65 4376.17 4872.87 4379.82 4895.45 4390.41C4918.03 4401 4936.97 4418.05 4949.86 4439.4C4958.43 4453.56 4964.12 4469.28 4966.61 4485.64C4969.1 4502.01 4968.35 4518.7 4964.38 4534.77C4960.42 4550.84 4953.33 4565.98 4943.51 4579.3C4933.7 4592.63 4921.35 4603.89 4907.18 4612.45Z" fill="white"/>
<path d="M4921.24 4766.78C4910.52 4766.82 4899.84 4765.5 4889.44 4762.87C4857.06 4754.77 4828.98 4734.63 4810.94 4706.55C4792.9 4678.46 4786.25 4644.55 4792.34 4611.74C4798.44 4578.92 4816.83 4549.66 4843.75 4529.93C4870.68 4510.2 4904.12 4501.49 4937.25 4505.57C4970.38 4509.64 5000.71 4526.21 5022.05 4551.87C5043.39 4577.54 5054.13 4610.39 5052.09 4643.7C5050.05 4677.02 5035.37 4708.31 5011.06 4731.18C4986.74 4754.05 4954.62 4766.78 4921.24 4766.78ZM4921.24 4514.61C4900 4514.65 4879.15 4520.33 4860.83 4531.06C4842.5 4541.8 4827.35 4557.21 4816.93 4575.71C4806.51 4594.22 4801.19 4615.16 4801.51 4636.4C4801.83 4657.63 4807.78 4678.4 4818.76 4696.59C4835.2 4723.53 4861.57 4742.92 4892.18 4750.59C4922.79 4758.25 4955.19 4753.57 4982.39 4737.55C5002.69 4725.28 5018.9 4707.25 5028.96 4685.76C5039.02 4664.27 5042.49 4640.28 5038.91 4616.82C5035.34 4593.37 5024.89 4571.5 5008.89 4553.98C4992.88 4536.46 4972.04 4524.08 4949 4518.4C4939.66 4515.95 4930.04 4514.68 4920.38 4514.61H4921.24Z" fill="white"/>
<path d="M3771.67 3668.95L3684.85 3721.29L3679.46 3712.48L3758.34 3664.79L3746.12 3644.37L3754.06 3639.6L3771.67 3668.95Z" fill="white"/>
<path d="M3747.22 3805.8L3739.27 3810.57L3702.58 3749.42L3708.81 3745.5L3765.93 3760.3C3770.48 3762.2 3775.4 3763.06 3780.32 3762.83C3785.25 3762.59 3790.07 3761.27 3794.42 3758.96C3804.45 3752.84 3806.65 3742.08 3798.46 3728.87C3795.99 3724.25 3792.5 3720.24 3788.27 3717.15C3784.03 3714.06 3779.16 3711.96 3774 3711.02L3775.59 3701.36C3782.13 3702.73 3788.3 3705.52 3793.64 3709.53C3798.99 3713.55 3803.39 3718.69 3806.53 3724.59C3817.17 3742.2 3814.97 3758.83 3800.54 3767.52C3795.1 3770.52 3789.07 3772.28 3782.87 3772.66C3776.67 3773.04 3770.46 3772.03 3764.7 3769.72L3717.86 3757.49L3747.22 3805.8Z" fill="white"/>
<path d="M3817.29 3888.22L3806.77 3870.86L3783.91 3884.55L3778.52 3875.63L3801.27 3861.93L3771.68 3813.01L3778.16 3809.1L3863.76 3820.35L3869.76 3830.25L3786.96 3819.74L3809.71 3857.4L3829.77 3845.17L3835.02 3853.86L3814.97 3866.09L3825.49 3883.45L3817.29 3888.22Z" fill="white"/>
<path d="M3897.64 4021.16L3887.12 4003.79L3864.37 4017.61L3858.99 4008.68L3881.74 3994.86L3852.14 3945.94L3858.63 3942.03L3944.23 3953.28L3950.22 3963.19L3867.43 3952.67L3890.18 3990.34L3910.36 3978.11L3915.49 3986.79L3895.44 3999.02L3906.2 4016.02L3897.64 4021.16Z" fill="white"/>
<path d="M3946.19 4095.39C3931.51 4104.32 3913.66 4100.89 3900.94 4079.73C3893.68 4068.57 3890.92 4055.06 3893.23 4041.95H3902.9C3900.57 4053.25 3902.77 4065.01 3909.01 4074.72C3917.94 4089.4 3929.8 4092.94 3940.32 4086.95C3950.84 4080.96 3954.26 4069.09 3940.32 4046.96L3929.19 4028.49L3975.42 4006.72L4004.03 4054.17L3996.08 4058.94L3971.63 4019.32L3942.27 4033.02L3949 4044.15C3965.88 4069.95 3961.6 4086.09 3946.19 4095.39Z" fill="white"/>
<path d="M3998.41 4180.87C3994.65 4183.1 3990.46 4184.52 3986.12 4185.05C3981.78 4185.58 3977.38 4185.2 3973.19 4183.93C3969.01 4182.67 3965.13 4180.55 3961.81 4177.7C3958.49 4174.86 3955.79 4171.36 3953.89 4167.42C3939.95 4144.31 3948.39 4122.17 3975.79 4105.54C4005.26 4087.81 4030.33 4094.65 4044.51 4117.77C4049.18 4124.75 4051.88 4132.86 4052.34 4141.25L4042.92 4141.98C4042.81 4135.08 4040.68 4128.37 4036.81 4122.66C4025.56 4103.95 4006.24 4099.18 3982.76 4113.37C3980.39 4114.79 3978.1 4116.34 3975.91 4118.01C3982.21 4117.6 3988.49 4119.05 3993.97 4122.18C3999.45 4125.31 4003.88 4129.99 4006.73 4135.62C4009.43 4139.04 4011.37 4142.99 4012.43 4147.22C4013.48 4151.45 4013.62 4155.85 4012.83 4160.13C4012.04 4164.42 4010.35 4168.49 4007.86 4172.06C4005.37 4175.64 4002.15 4178.64 3998.41 4180.87ZM3992.78 4172.31C3995.51 4170.65 3997.84 4168.43 3999.63 4165.79C4001.42 4163.16 4002.62 4160.17 4003.16 4157.02C4003.69 4153.88 4003.54 4150.66 4002.72 4147.58C4001.9 4144.5 4000.43 4141.63 3998.41 4139.17C3997.29 4136.03 3995.47 4133.17 3993.1 4130.83C3990.72 4128.48 3987.85 4126.7 3984.69 4125.61C3981.54 4124.52 3978.18 4124.16 3974.86 4124.55C3971.55 4124.94 3968.36 4126.07 3965.54 4127.85C3962.72 4129.64 3960.34 4132.04 3958.57 4134.87C3956.8 4137.7 3955.69 4140.89 3955.33 4144.21C3954.96 4147.53 3955.34 4150.89 3956.45 4154.04C3957.56 4157.19 3959.36 4160.05 3961.72 4162.41C3963.01 4165.19 3964.86 4167.67 3967.16 4169.7C3969.46 4171.72 3972.16 4173.25 3975.08 4174.18C3978 4175.11 3981.08 4175.43 3984.13 4175.11C3987.17 4174.78 3990.12 4173.83 3992.78 4172.31Z" fill="white"/>
<path d="M4069.09 4300.23C4054.66 4309.04 4037.18 4305.25 4024.46 4284.21C4017.13 4273.03 4014.37 4259.46 4016.75 4246.3H4026.41C4024.09 4257.7 4026.32 4269.55 4032.65 4279.32C4041.33 4293.75 4052.83 4297.54 4063.59 4291.55C4074.35 4285.56 4076.43 4273.82 4066.65 4257.67L4062.98 4251.56L4069.46 4247.52L4114.1 4253.39L4087.32 4209L4095.26 4204.23L4129.02 4260L4122.66 4263.79L4076.92 4257.92C4087.19 4276.63 4083.04 4291.92 4069.09 4300.23Z" fill="white"/>
<path d="M4122.66 4386.69C4118.89 4388.92 4114.7 4390.34 4110.35 4390.85C4106.01 4391.37 4101.6 4390.98 4097.41 4389.7C4093.23 4388.43 4089.35 4386.29 4086.03 4383.44C4082.72 4380.58 4080.03 4377.07 4078.14 4373.12C4064.2 4350.13 4072.64 4327.87 4100.04 4311.36C4129.51 4293.51 4154.7 4300.35 4168.89 4323.59C4173.47 4330.56 4176.13 4338.62 4176.59 4346.95L4167.3 4347.68C4167.11 4340.79 4164.99 4334.1 4161.18 4328.36C4149.81 4309.65 4130.61 4304.88 4107.01 4319.19C4105.05 4320.29 4102.6 4322 4100.16 4323.71C4106.46 4323.35 4112.74 4324.83 4118.23 4327.95C4123.72 4331.07 4128.19 4335.72 4131.1 4341.32C4133.8 4344.76 4135.74 4348.72 4136.78 4352.97C4137.83 4357.21 4137.95 4361.62 4137.15 4365.92C4136.36 4370.21 4134.65 4374.29 4132.15 4377.87C4129.65 4381.45 4126.41 4384.46 4122.66 4386.69ZM4117.16 4378.01C4119.87 4376.34 4122.19 4374.11 4123.97 4371.47C4125.75 4368.83 4126.94 4365.84 4127.46 4362.69C4127.98 4359.55 4127.82 4356.34 4126.99 4353.26C4126.17 4350.19 4124.69 4347.32 4122.66 4344.87C4121.57 4341.66 4119.76 4338.74 4117.37 4336.34C4114.99 4333.93 4112.09 4332.1 4108.89 4330.97C4105.69 4329.85 4102.28 4329.47 4098.92 4329.86C4095.55 4330.24 4092.32 4331.39 4089.46 4333.21C4086.6 4335.03 4084.19 4337.48 4082.41 4340.36C4080.64 4343.25 4079.54 4346.5 4079.21 4349.87C4078.87 4353.24 4079.31 4356.65 4080.48 4359.83C4081.65 4363.01 4083.53 4365.88 4085.97 4368.23C4087.29 4371 4089.16 4373.47 4091.47 4375.49C4093.79 4377.5 4096.5 4379.02 4099.42 4379.94C4102.35 4380.86 4105.44 4381.16 4108.49 4380.83C4111.54 4380.5 4114.49 4379.54 4117.16 4378.01Z" fill="white"/>
<path d="M4231.74 4429.74L4225.51 4433.53L4123.03 4445.76L4117.28 4436.1L4217.68 4423.87L4190.65 4379.23L4174.51 4389.02L4169.13 4380.21L4193.59 4365.66L4231.74 4429.74Z" fill="white"/>
<path d="M4306.71 4554.11L4300.48 4557.91L4197.99 4570.13L4192.25 4560.47L4292.65 4548.24L4265.62 4503.61L4249.36 4513.51L4244.1 4504.71L4268.56 4490.03L4306.71 4554.11Z" fill="white"/>
<path d="M4295.7 4677.02C4280.42 4686.31 4262.93 4678.98 4250.45 4658.31C4237.98 4637.64 4239.82 4619.05 4255.1 4609.39C4260.02 4606.36 4265.83 4605.1 4271.56 4605.81C4277.3 4606.52 4282.62 4609.17 4286.65 4613.3C4285.47 4608.51 4285.88 4603.45 4287.82 4598.91C4289.76 4594.36 4293.13 4590.57 4297.42 4588.11C4311.6 4579.55 4327.62 4586.28 4338.75 4604.62C4349.88 4622.97 4348.41 4640.58 4334.35 4649.14C4330.12 4651.74 4325.16 4652.92 4320.21 4652.51C4315.26 4652.09 4310.57 4650.09 4306.83 4646.81C4308.7 4652.36 4308.61 4658.38 4306.59 4663.88C4304.56 4669.37 4300.72 4674.01 4295.7 4677.02ZM4290.32 4667.73C4300.96 4661.24 4302.55 4648.04 4292.89 4632.75C4283.23 4617.46 4271.37 4612.33 4260.73 4618.81C4250.09 4625.29 4248.5 4638.37 4258.04 4653.78C4267.58 4669.19 4279.56 4674.21 4290.32 4667.73ZM4299.86 4628.47C4308.06 4641.92 4319.06 4646.32 4328.48 4640.7C4337.9 4635.07 4339 4622.6 4331.17 4609.51C4323.34 4596.43 4312.21 4591.78 4302.55 4597.28C4292.89 4602.79 4291.79 4615.26 4299.86 4628.47Z" fill="white"/>
<path d="M4366.63 4749.78C4337.16 4767.64 4311.97 4760.79 4297.78 4737.56C4293.21 4730.54 4290.55 4722.44 4290.08 4714.07L4299.37 4713.34C4299.56 4720.23 4301.67 4726.92 4305.49 4732.66C4316.86 4751.37 4336.06 4756.14 4359.66 4741.96C4361.62 4740.73 4364.07 4739.15 4366.51 4737.31C4360.2 4737.68 4353.92 4736.22 4348.43 4733.09C4342.94 4729.97 4338.47 4725.31 4335.57 4719.7C4332.94 4716.29 4331.05 4712.35 4330.04 4708.16C4329.04 4703.97 4328.93 4699.61 4329.72 4695.37C4330.52 4691.13 4332.21 4687.11 4334.67 4683.56C4337.13 4680.02 4340.31 4677.04 4344.01 4674.82C4347.77 4672.57 4351.95 4671.13 4356.3 4670.59C4360.64 4670.06 4365.05 4670.43 4369.24 4671.7C4373.43 4672.97 4377.31 4675.1 4380.63 4677.95C4383.95 4680.8 4386.64 4684.32 4388.52 4688.27C4402.47 4710.53 4394.03 4732.66 4366.63 4749.78ZM4376.42 4727.16C4379.08 4725.3 4381.32 4722.91 4383.02 4720.14C4384.71 4717.38 4385.81 4714.29 4386.26 4711.08C4386.71 4707.86 4386.49 4704.59 4385.62 4701.47C4384.74 4698.34 4383.24 4695.43 4381.19 4692.92C4379.98 4689.89 4378.12 4687.17 4375.74 4684.95C4373.37 4682.72 4370.52 4681.05 4367.43 4680.05C4364.33 4679.05 4361.04 4678.74 4357.81 4679.16C4354.58 4679.57 4351.48 4680.69 4348.74 4682.44C4345.99 4684.19 4343.66 4686.52 4341.92 4689.28C4340.18 4692.03 4339.07 4695.13 4338.66 4698.36C4338.26 4701.59 4338.57 4704.87 4339.58 4707.97C4340.59 4711.07 4342.27 4713.9 4344.5 4716.28C4345.88 4719.08 4347.82 4721.58 4350.19 4723.62C4352.55 4725.66 4355.31 4727.21 4358.28 4728.17C4361.26 4729.12 4364.4 4729.47 4367.52 4729.2C4370.63 4728.92 4373.66 4728.02 4376.42 4726.55V4727.16Z" fill="white"/>
<path d="M4462.39 4810.93L4375.69 4863.4L4370.3 4854.47L4449.06 4806.77L4436.83 4786.35L4444.78 4781.58L4462.39 4810.93Z" fill="white"/>
<path d="M4437.57 4948.27L4429.62 4953.16L4392.93 4892.01L4399.29 4888.22L4456.4 4902.9C4460.96 4904.78 4465.87 4905.64 4470.8 4905.41C4475.72 4905.18 4480.54 4903.86 4484.9 4901.55C4494.92 4895.56 4497.12 4884.68 4488.81 4871.47C4486.37 4866.82 4482.89 4862.8 4478.65 4859.7C4474.41 4856.61 4469.52 4854.52 4464.35 4853.61L4465.94 4844.07C4472.51 4845.41 4478.71 4848.19 4484.08 4852.2C4489.45 4856.22 4493.86 4861.38 4497 4867.31C4507.64 4884.92 4505.44 4901.43 4490.89 4910.23C4485.47 4913.22 4479.45 4914.95 4473.27 4915.31C4467.09 4915.67 4460.91 4914.65 4455.18 4912.31L4408.34 4900.08L4437.57 4948.27Z" fill="white"/>
<path d="M4501.53 5015.9C4486.97 5024.7 4469.49 5020.91 4456.89 4999.88C4449.56 4988.69 4446.81 4975.12 4449.19 4961.97H4458.85C4456.52 4973.36 4458.76 4985.22 4465.08 4994.98C4473.77 5009.29 4485.26 5013.21 4496.02 5007.21C4506.79 5001.22 4508.25 4989.48 4499.08 4973.34L4495.29 4967.1L4501.89 4963.19L4546.53 4969.06L4519.75 4924.67L4527.7 4919.9L4561.33 4975.66L4555.09 4979.45L4509.35 4973.58C4519.63 4992.29 4515.47 5007.46 4501.53 5015.9Z" fill="white"/>
<path d="M4041.84 4409.11L4003.97 4432L4426.29 5130.46L4464.16 5107.56L4041.84 4409.11Z" fill="white"/>
<path d="M4138.34 4786.77L4100.66 4809.54L4316.06 5166.05L4353.74 5143.28L4138.34 4786.77Z" fill="white"/>
<path d="M4177.26 3678.1L4063.8 3490.31C4046.48 3461.64 4009.19 3452.44 3980.52 3469.76L3866.42 3538.7C3837.75 3556.02 3828.55 3593.31 3845.87 3621.98L3959.33 3809.77C3976.65 3838.44 4013.94 3847.64 4042.62 3830.32L4156.71 3761.38C4185.38 3744.06 4194.58 3706.77 4177.26 3678.1Z" fill="#E0E0E0"/>
<path d="M3874.77 3533.45L3888.71 3525.01L3979.58 3675.19C3982.07 3679.31 3985.34 3682.91 3989.22 3685.77C3993.1 3688.63 3997.51 3690.7 4002.18 3691.86C4006.86 3693.02 4011.72 3693.24 4016.49 3692.52C4021.26 3691.8 4025.83 3690.15 4029.96 3687.66C4034.09 3685.17 4037.68 3681.89 4040.55 3678.01C4043.41 3674.13 4045.47 3669.73 4046.63 3665.05C4047.79 3660.37 4048.02 3655.51 4047.3 3650.74C4046.58 3645.98 4044.92 3641.4 4042.44 3637.27L3951.69 3487.1L3965.63 3478.66L4056.38 3628.84C4063.64 3640.87 4065.83 3655.3 4062.46 3668.94C4059.09 3682.59 4050.43 3694.34 4038.4 3701.6C4026.37 3708.87 4011.94 3711.05 3998.29 3707.68C3984.65 3704.31 3972.9 3695.66 3965.63 3683.62L3874.77 3533.45Z" fill="#EBEBEB"/>
<path d="M4072.39 3688.82L4058.3 3697.34L4120.94 3800.94L4135.03 3792.42L4072.39 3688.82Z" fill="#EBEBEB"/>
<path d="M4685.9 4114.62L4232.71 3364.54L4168.34 3403.43L4621.53 4153.51L4685.9 4114.62Z" fill="white"/>
<path d="M2136.6 0C2127.31 132.078 2136.6 378.134 2088.54 501.406C2040.48 624.679 1976.27 751.865 1856.18 807.142C1707.96 875.137 1533.81 846.276 1375.69 886.144C1127.92 948.514 948.635 1175.86 872.201 1419.71C795.767 1663.57 804.206 1924.79 813.378 2180.14L2077.9 2355.51C2077.9 2355.51 2084.5 1841.87 2194.81 1701.36C2305.12 1560.84 2829.15 1434.76 3001.95 1050.63C3157.76 704.904 3204.72 156.659 3204.72 156.659L2136.6 0Z" fill="#F5F5F5"/>
<path d="M2445.52 347.193L2429.13 316.986C2426.85 317.16 2424.56 317.16 2422.28 316.986L2399.04 314.174L2395.62 341.568L2386.57 340.467L2397.21 254.005L2429.5 258.041C2451.51 260.731 2463.37 273.572 2461.17 292.038C2460.65 298.128 2458.08 303.862 2453.88 308.304C2449.69 312.746 2444.11 315.634 2438.06 316.497L2455.42 348.661L2445.52 347.193ZM2452 290.449C2453.71 276.629 2445.52 267.58 2428.27 265.99L2405.28 263.177L2400.02 306.469L2422.89 309.282C2440.26 310.505 2450.9 304.145 2452 290.571V290.449Z" fill="#E0E0E0"/>
<path d="M2537.73 350.739L2536.75 358.566L2475.6 351.106L2486.24 264.767L2545.43 271.982L2544.45 279.931L2494.56 273.816L2490.77 304.635L2535.4 310.138L2534.43 317.842L2489.79 312.339L2485.75 344.38L2537.73 350.739Z" fill="#E0E0E0"/>
<path d="M2555.33 317.109C2555.99 311.187 2557.84 305.46 2560.78 300.278C2563.72 295.097 2567.69 290.57 2572.44 286.975C2577.19 283.38 2582.62 280.793 2588.41 279.372C2594.2 277.95 2600.21 277.725 2606.09 278.709C2611.96 279.216 2617.66 280.947 2622.82 283.791C2627.98 286.634 2632.48 290.527 2636.05 295.219L2629.57 300.355C2626.67 296.515 2622.99 293.332 2618.78 291.013C2614.56 288.695 2609.9 287.294 2605.11 286.903C2600.32 286.111 2595.41 286.295 2590.69 287.444C2585.97 288.593 2581.53 290.684 2577.64 293.591C2573.75 296.498 2570.48 300.161 2568.04 304.36C2565.6 308.56 2564.03 313.209 2563.43 318.03C2562.83 322.85 2563.2 327.742 2564.54 332.413C2565.88 337.084 2568.14 341.437 2571.2 345.211C2574.26 348.986 2578.05 352.103 2582.34 354.377C2586.63 356.651 2591.34 358.035 2596.18 358.445C2600.92 359.21 2605.77 358.963 2610.41 357.719C2615.04 356.475 2619.37 354.264 2623.09 351.229L2628.1 357.833C2623.46 361.514 2618.11 364.188 2612.38 365.683C2606.66 367.178 2600.68 367.462 2594.84 366.516C2588.95 365.99 2583.23 364.278 2578.02 361.482C2572.81 358.686 2568.23 354.865 2564.53 350.248C2560.84 345.631 2558.13 340.315 2556.54 334.62C2554.96 328.925 2554.55 322.968 2555.33 317.109Z" fill="#E0E0E0"/>
<path d="M2708.45 371.652L2707.47 379.601L2646.57 371.652L2657.21 285.312L2716.4 292.65L2715.42 300.477L2665.28 294.362L2661.49 325.058L2706.12 330.561L2705.27 338.388L2660.63 332.885L2656.59 364.926L2708.45 371.652Z" fill="#E0E0E0"/>
<path d="M2739.63 295.952L2748.68 297.175L2738.04 383.882L2728.87 382.659L2739.63 295.952Z" fill="#E0E0E0"/>
<path d="M2840.77 338.511C2838.45 356.977 2823.77 366.394 2801.88 363.703L2778.65 360.768L2775.34 388.04L2766.17 386.939L2776.81 300.6L2809.1 304.635C2831.11 307.326 2843.1 320.044 2840.77 338.511ZM2831.6 337.41C2833.31 323.591 2825.24 314.663 2807.87 312.951L2785.01 310.139L2779.62 353.308L2802.62 356.121C2819.86 357.833 2830.01 350.985 2831.6 337.41Z" fill="#E0E0E0"/>
<path d="M2877.09 321.022L2846.76 317.231L2847.74 309.404L2917.57 317.965L2916.59 325.914L2886.26 322.734L2876.6 401.247L2867.43 400.024L2877.09 321.022Z" fill="#E0E0E0"/>
<path d="M2740.49 558.151C2740.49 559.985 2624.92 545.921 2483.06 526.354C2341.2 506.787 2226.24 489.666 2226.24 488.198C2226.24 486.731 2341.69 500.428 2483.06 519.995C2624.43 539.562 2740.61 556.439 2740.49 558.151Z" fill="#E0E0E0"/>
<path d="M2726.55 661.122C2726.55 662.957 2611.1 648.893 2469.73 629.326C2328.36 609.759 2212.91 592.638 2212.91 591.17C2212.91 589.703 2328.36 603.4 2469.73 622.967C2611.1 642.534 2726.79 659.41 2726.55 661.122Z" fill="#E0E0E0"/>
<path d="M2679.46 766.174C2679.46 767.886 2564.02 753.944 2422.65 734.377C2281.27 714.81 2165.83 697.689 2165.83 696.099C2165.83 694.509 2281.15 708.328 2422.65 728.018C2564.14 747.707 2679.71 764.461 2679.46 766.174Z" fill="#E0E0E0"/>
<path d="M2593.74 872.08C2593.74 873.915 2478.29 859.851 2336.31 840.284C2194.32 820.717 2079.49 803.596 2079.49 802.128C2079.49 800.661 2194.93 814.358 2336.92 833.925C2478.9 853.492 2593.98 870.368 2593.74 872.08Z" fill="#E0E0E0"/>
<path d="M2457.14 977.865C2457.14 979.577 2341.69 965.635 2200.32 945.946C2058.95 926.257 1943.5 909.258 1943.5 907.79C1943.5 906.323 2058.95 920.02 2200.32 939.709C2341.69 959.398 2457.38 976.03 2457.14 977.865Z" fill="#E0E0E0"/>
<path d="M2970.77 592.515C2928.37 589.878 2886.34 583.037 2845.3 572.092C2866.59 572.377 2887.81 574.752 2908.65 579.185C2929.75 581.548 2950.56 586.013 2970.77 592.515Z" fill="#E0E0E0"/>
<path d="M2966.37 684.358C2945.2 684.09 2924.1 681.755 2903.39 677.388C2882.29 675.025 2861.47 670.559 2841.26 664.058C2862.53 664.203 2883.72 666.581 2904.49 671.151C2925.5 673.525 2946.22 677.949 2966.37 684.358Z" fill="#E0E0E0"/>
<path d="M2935.18 811.911C2913.88 811.532 2892.66 809.074 2871.83 804.574C2850.8 801.915 2830.02 797.539 2809.71 791.488C2809.71 789.287 2838.32 792.589 2872.93 798.214C2894.09 800.684 2914.94 805.272 2935.18 811.911Z" fill="#E0E0E0"/>
<path d="M2890.18 918.919C2868.87 918.54 2847.66 916.082 2826.83 911.581C2805.8 908.905 2785.02 904.529 2764.7 898.496C2764.7 896.295 2793.32 899.597 2827.93 905.222C2849.09 907.674 2869.94 912.263 2890.18 918.919Z" fill="#E0E0E0"/>
<path d="M2793.32 1021.03C2772.02 1020.66 2750.8 1018.2 2729.97 1013.7C2708.93 1011.11 2688.15 1006.73 2667.85 1000.61C2667.85 998.41 2696.46 1001.71 2730.95 1007.46C2752.14 1009.92 2773.03 1014.47 2793.32 1021.03Z" fill="#E0E0E0"/>
<path d="M2340.83 1107.01C2340.83 1108.72 2167.66 1085.73 1954.63 1055.52C1741.59 1025.31 1568.91 999.511 1569.16 997.799C1569.4 996.087 1742.33 1019.08 1955.48 1049.28C2168.64 1079.49 2340.83 1105.42 2340.83 1107.01Z" fill="#E0E0E0"/>
<path d="M2251.07 1215.48C2248.2 1215.4 2245.34 1215.16 2242.51 1214.75L2218.05 1211.57L2128.77 1198.48L1834.53 1153.23C1719.7 1135.13 1615.87 1118.26 1541.03 1105.66L1452.12 1090.37C1441.6 1088.42 1433.53 1086.95 1427.66 1085.73C1424.81 1085.31 1422.02 1084.57 1419.34 1083.53C1422.22 1083.63 1425.08 1083.95 1427.9 1084.5L1452.36 1087.93L1541.64 1101.26L1835.88 1146.87L2129.38 1194.08L2218.29 1209.12L2242.75 1213.53C2245.59 1213.83 2248.39 1214.49 2251.07 1215.48Z" fill="#E0E0E0"/>
<path d="M2089.64 1314.05C2078.97 1314.3 2068.31 1313.35 2057.84 1311.24C2037.18 1308.55 2007.21 1304.39 1970.16 1299.01C1896.17 1288.37 1794.06 1272.84 1681.42 1255.23C1568.79 1237.62 1466.67 1221.11 1392.93 1208.88L1305.61 1194.2L1282.01 1189.8C1279.21 1189.46 1276.46 1188.8 1273.82 1187.84C1276.61 1187.76 1279.4 1188 1282.13 1188.58L1305.98 1191.63L1393.66 1203.86L1682.4 1248.26L1970.89 1293.99L2089.64 1314.05Z" fill="#E0E0E0"/>
<path d="M2631.77 1166.56C2610.47 1166.19 2589.25 1163.73 2568.42 1159.23C2547.39 1156.55 2526.62 1152.17 2506.3 1146.14C2506.3 1143.94 2534.91 1147.24 2569.52 1152.87C2590.68 1155.3 2611.54 1159.89 2631.77 1166.56Z" fill="#E0E0E0"/>
<path d="M2507.15 1235.78C2485.85 1235.4 2464.63 1232.95 2443.81 1228.45C2422.78 1225.77 2402 1221.39 2381.68 1215.36C2381.68 1213.16 2410.3 1216.46 2444.91 1222.09C2466.07 1224.52 2486.93 1229.11 2507.15 1235.78Z" fill="#E0E0E0"/>
<path d="M2339.36 1352.57C2318.06 1352.2 2296.84 1349.74 2276.02 1345.24C2254.98 1342.63 2234.19 1338.25 2213.89 1332.15C2213.89 1329.95 2242.51 1333.25 2277.12 1339C2298.27 1341.43 2319.12 1345.98 2339.36 1352.57Z" fill="#E0E0E0"/>
<path d="M2018.71 1536.99C2018.71 1538.83 1804.57 1507.28 1541.76 1466.8C1278.95 1426.32 1064.82 1391.95 1064.82 1390.24C1064.82 1388.53 1278.83 1419.96 1541.76 1460.56C1804.7 1501.16 2018.96 1535.28 2018.71 1536.99Z" fill="#E0E0E0"/>
<path d="M1890.67 1768.5C1890.67 1770.21 1820.22 1760.3 1734.13 1746.36C1648.03 1732.42 1578.33 1719.7 1578.57 1717.99C1578.82 1716.28 1649.01 1726.18 1735.11 1740.12C1821.2 1754.07 1890.91 1766.66 1890.67 1768.5Z" fill="#E0E0E0"/>
<path d="M4728.41 876.515L3504.9 1049.34C3459.49 1055.75 3427.88 1097.77 3434.29 1143.18L3597.01 2295.13C3603.42 2340.53 3645.43 2372.15 3690.84 2365.73L4914.36 2192.91C4959.77 2186.49 4991.38 2144.48 4984.96 2099.07L4822.25 947.123C4815.83 901.713 4773.82 870.101 4728.41 876.515Z" fill="#692FA3"/>
<path d="M4470.1 1786.72C4467.06 1787.64 4463.95 1788.29 4460.8 1788.67L4434.02 1793.08L4334.23 1808.36L4000.49 1857.28H3997.8L3997.06 1854.59C3992.05 1837.23 3986.67 1819 3981.29 1800.42C3935.91 1641.43 3895.68 1499.94 3868.9 1407.36L3871.1 1408.71L3782.07 1420.94L3758.34 1423.87C3755.58 1424.09 3752.8 1424.09 3750.03 1423.87C3752.66 1423.06 3755.36 1422.49 3758.1 1422.16L3781.7 1418.25L3870.49 1404.55H3872.2V1406.14L3986.91 1798.58L4002.56 1852.88L3999.14 1850.56L4334.23 1804.08L4433.77 1790.75L4460.8 1787.45C4463.88 1786.96 4466.98 1786.72 4470.1 1786.72Z" fill="#EBEBEB"/>
<path d="M3972.97 1758.84H3975.3L3982.14 1757.49L4008.93 1753.21L4109.33 1737.8L4455.67 1686.93L4452.98 1689.86C4454.93 1630.06 4457.01 1565.37 4459.09 1498.47C4460.19 1464.11 4461.29 1430.23 4462.39 1397.95L4465.94 1401.25L4057.36 1458.85L3936.41 1475.24L3903.75 1479.39L3895.19 1480.37H3892.26C3893.19 1479.98 3894.18 1479.73 3895.19 1479.64L3903.51 1478.17L3936.04 1472.91L4056.87 1454.57L4465.08 1394.89H4468.75V1398.68C4467.77 1430.96 4466.67 1464.72 4465.57 1499.2C4463.37 1566.1 4461.17 1630.79 4459.21 1690.6V1692.43H4456.65L4109.94 1741.35L4009.42 1754.92L3982.51 1758.35L3975.54 1759.08L3972.97 1758.84Z" fill="#EBEBEB"/>
<path d="M4136.23 1964.78C4135.62 1964.78 4135.01 1960.62 4131.95 1954.02C4127.64 1944.66 4120.38 1936.97 4111.29 1932.13C4103.98 1928.18 4095.72 1926.33 4087.43 1926.79C4079.14 1927.26 4071.14 1930.01 4064.32 1934.75C4057.5 1939.49 4052.13 1946.03 4048.8 1953.64C4045.48 1961.26 4044.33 1969.64 4045.49 1977.86C4046.91 1986.77 4050.99 1995.03 4057.19 2001.58C4063.38 2008.12 4071.41 2012.65 4080.22 2014.55C4087.57 2016.08 4095.18 2015.76 4102.37 2013.63C4109.56 2011.49 4116.11 2007.61 4121.44 2002.32C4128.86 1995.12 4133.68 1985.66 4135.13 1975.42C4136.23 1968.2 4135.13 1963.92 4136.23 1963.92C4137.76 1967.81 4138.26 1972.02 4137.7 1976.15C4137 1987.33 4132.36 1997.9 4124.62 2005.99C4118.84 2012.04 4111.64 2016.54 4103.66 2019.06C4095.69 2021.59 4087.2 2022.05 4079 2020.42C4068.8 2018.41 4059.48 2013.29 4052.33 2005.75C4045.17 1998.21 4040.53 1988.64 4039.06 1978.35C4037.58 1968.07 4039.33 1957.58 4044.08 1948.33C4048.83 1939.08 4056.33 1931.54 4065.55 1926.75C4072.96 1922.88 4081.22 1920.94 4089.58 1921.11C4097.94 1921.29 4106.12 1923.56 4113.36 1927.72C4122.97 1933.19 4130.37 1941.84 4134.28 1952.18C4135.99 1956.15 4136.66 1960.48 4136.23 1964.78Z" fill="#EBEBEB"/>
<path d="M4438.42 1921.36C4438.42 1921.36 4437.2 1917.21 4434.14 1910.6C4429.82 1901.21 4422.51 1893.51 4413.35 1888.71C4406.07 1884.8 4397.85 1882.99 4389.6 1883.47C4381.35 1883.96 4373.4 1886.73 4366.63 1891.47C4359.86 1896.2 4354.54 1902.73 4351.26 1910.31C4347.98 1917.9 4346.87 1926.24 4348.05 1934.42C4349.24 1942.6 4352.66 1950.29 4357.96 1956.63C4363.25 1962.98 4370.2 1967.73 4378.04 1970.36C4385.87 1972.98 4394.28 1973.38 4402.33 1971.51C4410.38 1969.64 4417.75 1965.58 4423.63 1959.76C4431.05 1952.56 4435.87 1943.1 4437.32 1932.86C4438.42 1925.64 4437.32 1921.36 4438.42 1921.36C4439.91 1925.26 4440.37 1929.47 4439.77 1933.59C4439.16 1944.77 4434.56 1955.36 4426.81 1963.43C4421.03 1969.49 4413.83 1973.98 4405.85 1976.51C4397.88 1979.03 4389.39 1979.5 4381.19 1977.86C4370.99 1975.86 4361.67 1970.73 4354.52 1963.19C4347.36 1955.66 4342.72 1946.08 4341.25 1935.8C4339.77 1925.51 4341.53 1915.02 4346.27 1905.77C4351.02 1896.53 4358.52 1888.98 4367.74 1884.19C4375.15 1880.32 4383.42 1878.39 4391.77 1878.56C4400.13 1878.73 4408.31 1881 4415.56 1885.16C4425.16 1890.63 4432.56 1899.28 4436.47 1909.62C4438.04 1913.33 4438.71 1917.35 4438.42 1921.36Z" fill="#EBEBEB"/>
<path d="M4546 1428.38C4587.25 1366.02 4570.13 1282.03 4507.76 1240.78C4445.4 1199.54 4361.41 1216.66 4320.17 1279.02C4278.92 1341.38 4296.04 1425.37 4358.4 1466.62C4420.76 1507.86 4504.75 1490.75 4546 1428.38Z" fill="#FAFAFA"/>
<path d="M4498.59 1293.26C4494.72 1301.91 4489.92 1310.11 4484.28 1317.72C4474.75 1332.15 4461.29 1351.72 4446.13 1373.24L4429.86 1396.11L4428.15 1398.56L4425.71 1396.97C4406.46 1385.4 4388.14 1372.36 4370.92 1357.95C4391.11 1367.76 4410.53 1379.09 4429.01 1391.83L4424.85 1392.56L4440.99 1369.57C4456.16 1348.05 4470.22 1328.85 4480.62 1315.03C4485.76 1307.11 4491.79 1299.81 4498.59 1293.26Z" fill="#FBC400"/>
<path d="M4838.44 2661.75L3898.31 2424.73C3853.84 2413.52 3808.7 2440.48 3797.49 2484.95L3574.79 3368.28C3563.58 3412.75 3590.54 3457.89 3635.01 3469.1L4575.14 3706.11C4619.61 3717.32 4664.75 3690.36 4675.96 3645.9L4898.66 2762.57C4909.87 2718.1 4882.91 2672.96 4838.44 2661.75Z" fill="#455A64"/>
<path d="M3984.59 2916.84L3993.15 3150.42L4421.18 3258.41L4542.13 3066.65C4542.13 3066.65 4500.67 3040.97 4470.46 3039.87L4520.85 2806.28C4521.98 2801.04 4521.81 2795.6 4520.35 2790.44C4518.9 2785.27 4516.2 2780.54 4512.5 2776.66C4508.8 2772.78 4504.2 2769.86 4499.11 2768.16C4494.03 2766.46 4488.6 2766.03 4483.31 2766.91L4437.2 2774.61L4195.67 2713.46L4171.21 2692.55C4167.02 2688.91 4161.96 2686.41 4156.52 2685.29C4151.08 2684.17 4145.45 2684.48 4140.16 2686.18C4134.88 2687.87 4130.12 2690.9 4126.34 2694.98C4122.57 2699.05 4119.91 2704.03 4118.62 2709.43L4062.12 2939.83C4038.26 2926.62 4011.8 2918.78 3984.59 2916.84Z" fill="#FAFAFA"/>
<path d="M4103.7 3067.51C4121.03 3099.63 4148.2 3125.35 4181.24 3140.88C4214.15 3156.19 4249.88 3164.51 4286.17 3165.34C4305.86 3166.07 4327.75 3164.36 4341.57 3150.42C4355.38 3136.48 4357.1 3113.73 4357.46 3093.19C4359.04 3067.09 4356.9 3040.9 4351.1 3015.41C4348.22 3002.58 4342.67 2990.51 4334.81 2979.97C4326.95 2969.44 4316.96 2960.68 4305.49 2954.26C4273.69 2938.85 4235.17 2949.74 4204.47 2967.1C4163.93 2990.09 4130.18 3023.37 4106.64 3063.59" fill="#E0E0E0"/>
<path d="M4015.47 3155.97L3992.82 3150.26L3942.89 3348.29L3965.54 3354L4015.47 3155.97Z" fill="#263238"/>
<path d="M4094.5 3176.12L4071.85 3170.41L4046.35 3271.56L4069 3277.27L4094.5 3176.12Z" fill="#263238"/>
<path d="M4321.63 3233.44L4298.98 3227.73L4273.48 3328.89L4296.13 3334.6L4321.63 3233.44Z" fill="#263238"/>
<path d="M4421.64 3258.59L4398.99 3252.88L4349.07 3450.92L4371.72 3456.63L4421.64 3258.59Z" fill="#263238"/>
<path d="M4115.08 3047.2C4113.37 3047.2 4130.73 2972.24 4153.84 2880.76C4176.96 2789.29 4196.89 2715.42 4198.6 2715.91C4200.32 2716.4 4183.07 2790.75 4159.96 2882.35C4136.85 2973.95 4116.79 3047.57 4115.08 3047.2Z" fill="#263238"/>
<path d="M4357.1 3108.23C4355.39 3108.23 4372.63 3033.26 4395.74 2941.79C4418.86 2850.31 4438.91 2776.45 4440.62 2776.81C4442.34 2777.18 4424.97 2851.78 4401.86 2943.25C4378.74 3034.73 4358.69 3108.6 4357.1 3108.23Z" fill="#263238"/>
<path d="M4469.98 3039.87C4465.91 3040.24 4461.81 3040.24 4457.75 3039.87H4451.39L4443.68 3040.72L4434.88 3041.82L4425.22 3044.39C4408.99 3049.01 4394.4 3058.12 4383.15 3070.69C4368.74 3086.81 4359.35 3106.78 4356.12 3128.16V3131.47L4353.06 3130.61L4238.47 3102.12L4110.19 3069.34H4107.5V3066.65C4112.01 3047.21 4111.63 3026.96 4106.4 3007.7C4102.4 2992.77 4095.73 2978.68 4086.71 2966.12C4078.52 2955.27 4069.07 2945.42 4058.58 2936.77C4061.85 2938.33 4064.93 2940.26 4067.75 2942.52C4075.9 2948.73 4083.18 2956.02 4089.4 2964.17C4099.13 2976.8 4106.39 2991.16 4110.8 3006.48C4116.64 3026.36 4117.4 3047.38 4113 3067.63L4110.92 3064.33L4239.45 3096.25L4353.8 3125.47L4350.25 3127.92C4353.78 3105.4 4363.96 3084.45 4379.48 3067.75C4391.69 3054.99 4407.31 3045.99 4424.48 3041.82L4434.63 3039.62L4443.68 3039.01L4451.51 3038.4H4458.11C4462.11 3038.4 4466.1 3038.9 4469.98 3039.87Z" fill="#263238"/>
<path d="M4105.29 3066.89C4105.29 3067.87 4096.61 3066.89 4083.4 3069.83C4066.18 3072.84 4050.01 3080.17 4036.4 3091.14C4022.8 3102.12 4012.21 3116.37 4005.62 3132.57C4000.49 3144.8 3999.26 3153.48 3998.16 3153.23C3997.36 3145.66 3998.5 3138 4001.47 3130.98C4007.26 3113.39 4018 3097.85 4032.41 3086.22C4046.88 3074.61 4064.35 3067.36 4082.79 3065.3C4090.3 3063.88 4098.06 3064.42 4105.29 3066.89Z" fill="#263238"/>
<path d="M4416.04 3261.83C4415.06 3261.83 4417.14 3252.41 4417.14 3237.37C4417.11 3217.99 4412.63 3198.87 4404.06 3181.48C4395.38 3164.21 4382.82 3149.19 4367.37 3137.58C4355.14 3128.65 4346.82 3125.35 4347.19 3123.88C4355.44 3125.45 4363.22 3128.88 4369.94 3133.91C4387.07 3144.95 4400.93 3160.39 4410.07 3178.6C4419.21 3196.82 4423.3 3217.16 4421.91 3237.49C4421.86 3245.95 4419.85 3254.28 4416.04 3261.83Z" fill="#263238"/>
<path d="M1930.42 1257.18C1928.75 1257.13 1927.17 1256.43 1926.01 1255.23L1902.65 1230.77C1902.08 1230.22 1901.63 1229.55 1901.34 1228.81C1901.04 1228.07 1900.91 1227.28 1900.94 1226.49C1900.95 1225.69 1901.11 1224.9 1901.43 1224.16C1901.74 1223.43 1902.2 1222.76 1902.78 1222.21L1926.26 1199.83C1926.82 1199.26 1927.48 1198.81 1928.22 1198.5C1928.95 1198.19 1929.74 1198.03 1930.54 1198.03C1931.33 1198.03 1932.12 1198.19 1932.86 1198.5C1933.59 1198.81 1934.26 1199.26 1934.82 1199.83C1935.39 1200.4 1935.85 1201.07 1936.16 1201.82C1936.47 1202.56 1936.63 1203.36 1936.63 1204.17C1936.63 1204.98 1936.47 1205.78 1936.16 1206.52C1935.85 1207.27 1935.39 1207.94 1934.82 1208.51L1915.74 1226.61L1934.94 1246.67C1935.51 1247.24 1935.97 1247.91 1936.28 1248.66C1936.59 1249.4 1936.75 1250.2 1936.75 1251.01C1936.75 1251.82 1936.59 1252.61 1936.28 1253.36C1935.97 1254.1 1935.51 1254.78 1934.94 1255.35C1934.34 1255.94 1933.64 1256.4 1932.86 1256.72C1932.08 1257.03 1931.25 1257.19 1930.42 1257.18Z" fill="#263238"/>
<path d="M3321.39 2930.78C3321.4 2928.46 3321.89 2926.17 3322.81 2924.05C3323.73 2921.92 3325.06 2920 3326.74 2918.4C3328.42 2916.8 3330.4 2915.56 3332.57 2914.74C3334.74 2913.93 3337.05 2913.56 3339.37 2913.66C3343.94 2913.66 3348.33 2915.48 3351.56 2918.71C3354.79 2921.94 3356.61 2926.33 3356.61 2930.9C3356.61 2935.48 3354.79 2939.86 3351.56 2943.1C3348.33 2946.33 3343.94 2948.15 3339.37 2948.15C3337.04 2948.23 3334.71 2947.84 3332.53 2947C3330.36 2946.17 3328.37 2944.9 3326.69 2943.28C3325.01 2941.66 3323.68 2939.72 3322.77 2937.57C3321.86 2935.42 3321.39 2933.11 3321.39 2930.78ZM3322.98 2790.75H3355.88L3350.37 2894.95H3328.24L3322.98 2790.75Z" fill="#692FA3"/>
<path d="M2756.88 2557.54C2933.7 2557.54 3077.05 2414.2 3077.05 2237.37C3077.05 2060.55 2933.7 1917.21 2756.88 1917.21C2580.06 1917.21 2436.71 2060.55 2436.71 2237.37C2436.71 2414.2 2580.06 2557.54 2756.88 2557.54Z" fill="#692FA3"/>
<path d="M2914.52 2102.24C2918.55 2105.54 2858.75 2186.01 2780.97 2281.89L2733.77 2339.12L2727.28 2346.95L2720.44 2339.85C2659.29 2277.12 2618.08 2230.65 2621.01 2227.71C2623.95 2224.78 2670.54 2266.23 2733.15 2327.01L2719.95 2328.36L2766.17 2270.51C2843.95 2174.02 2910.36 2098.93 2914.52 2102.24Z" fill="white"/>
<path d="M3211.69 2108.23C3202.15 2074.6 3158.49 2077.9 3158.49 2077.9L3159.59 2101.26C3184.91 2096.86 3200.56 2126.45 3200.56 2126.45L3211.69 2108.23Z" fill="#FBC400"/>
<path d="M2284.21 2178.92C2274.8 2145.28 2231.02 2148.46 2231.02 2148.46L2232.24 2171.94C2257.55 2167.54 2273.21 2197.14 2273.21 2197.14L2284.21 2178.92Z" fill="#E0E0E0"/>
<path d="M2795.04 1713.59C2845.79 1729 2877.34 1670.54 2877.34 1670.54L2846.52 1652.93C2831.36 1688.76 2780.73 1684.6 2780.73 1684.6L2795.04 1713.59Z" fill="#E0E0E0"/>
<path d="M2513.64 1776.57C2490.04 1779.14 2487.22 1808.73 2487.22 1808.73L2503 1810.57C2503 1793.2 2524.64 1786.11 2524.64 1786.11L2513.64 1776.57Z" fill="#FBC400"/>
<path d="M3486.36 1993.27C3489.79 1969.79 3461.9 1959.64 3461.9 1959.64L3456.16 1974.44C3473.03 1978.72 3474.62 2001.47 3474.62 2001.47L3486.36 1993.27Z" fill="#E0E0E0"/>
<path d="M2651.34 1467.53C2654.76 1444.05 2626.88 1433.9 2626.88 1433.9L2621.13 1448.82C2638.01 1453.1 2639.6 1475.72 2639.6 1475.72L2651.34 1467.53Z" fill="#FBC400"/>
<path d="M2068.24 1846.28C2064.08 1882.96 2112.76 1892.01 2112.76 1892.01L2121.56 1867.55C2092.33 1864.86 2088.17 1830.87 2088.17 1830.87L2068.24 1846.28Z" fill="#FBC400"/>
<path d="M3153.72 1712.85C3177.45 1714.2 3185.03 1685.46 3185.03 1685.46L3169.74 1681.06C3166.93 1698.18 3144.43 1701.72 3144.43 1701.72L3153.72 1712.85Z" fill="#FBC400"/>
<path d="M3283.24 1809.46C3276.88 1811.25 3270.25 1811.87 3263.67 1811.3C3257.09 1811.88 3250.46 1811.26 3244.1 1809.46C3257.02 1806.86 3270.32 1806.86 3283.24 1809.46Z" fill="#E0E0E0"/>
<path d="M3304.02 1756.27C3306.47 1769.36 3306.47 1782.8 3304.02 1795.89C3301.41 1782.81 3301.41 1769.35 3304.02 1756.27Z" fill="#E0E0E0"/>
<path d="M3326.04 1808.12C3332.4 1806.34 3339.03 1805.71 3345.61 1806.28C3352.19 1805.7 3358.82 1806.32 3365.17 1808.12C3352.26 1810.73 3338.95 1810.73 3326.04 1808.12Z" fill="#E0E0E0"/>
<path d="M3305.37 1861.44C3302.76 1848.32 3302.76 1834.81 3305.37 1821.69C3307.82 1834.83 3307.82 1848.3 3305.37 1861.44Z" fill="#E0E0E0"/>
<path d="M3336.92 1839.18C3336.19 1839.79 3332.4 1836.61 3328.48 1832.09C3324.57 1827.56 3322.24 1823.16 3322.98 1822.55C3323.71 1821.94 3327.63 1825 3331.42 1829.64C3335.21 1834.29 3337.78 1837.84 3336.92 1839.18Z" fill="#E0E0E0"/>
<path d="M3335.09 1778.04C3335.82 1778.89 3333.25 1782.68 3329.22 1786.72C3325.18 1790.75 3321.39 1793.44 3320.66 1792.71C3319.92 1791.98 3322.49 1788.06 3326.53 1784.03C3330.56 1779.99 3334.35 1778.04 3335.09 1778.04Z" fill="#E0E0E0"/>
<path d="M3290.33 1793.57C3289.59 1794.42 3285.92 1792.47 3282.13 1789.29C3278.34 1786.11 3275.9 1782.93 3276.51 1782.19C3277.12 1781.46 3280.79 1783.29 3284.58 1786.35C3288.37 1789.41 3290.94 1792.83 3290.33 1793.57Z" fill="#E0E0E0"/>
<path d="M3288.49 1820.23C3289.35 1820.84 3287.02 1824.63 3283.36 1828.66C3279.69 1832.7 3276.14 1835.27 3275.41 1834.53C3274.67 1833.8 3276.87 1830.01 3280.54 1826.1C3284.21 1822.18 3287.76 1819.49 3288.49 1820.23Z" fill="#E0E0E0"/>
<path d="M2217.81 1700.38C2204.89 1702.99 2191.59 1702.99 2178.67 1700.38C2185.03 1698.59 2191.66 1697.97 2198.24 1698.54C2204.82 1697.96 2211.45 1698.58 2217.81 1700.38Z" fill="#FBC400"/>
<path d="M2238.6 1647.18C2241.21 1660.3 2241.21 1673.81 2238.6 1686.93C2235.99 1673.81 2235.99 1660.3 2238.6 1647.18Z" fill="#FBC400"/>
<path d="M2260.73 1699.16C2273.64 1696.55 2286.95 1696.55 2299.86 1699.16C2286.95 1701.76 2273.64 1701.76 2260.73 1699.16Z" fill="#FBC400"/>
<path d="M2239.94 1752.35C2237.33 1739.27 2237.33 1725.81 2239.94 1712.73C2242.55 1725.81 2242.55 1739.27 2239.94 1752.35Z" fill="#FBC400"/>
<path d="M2271.61 1729.12C2270.76 1729.85 2266.97 1726.67 2263.18 1722.02C2259.38 1717.38 2256.82 1713.22 2257.67 1712.49C2258.53 1711.75 2262.2 1715.05 2266.11 1719.58C2270.02 1724.1 2272.35 1729.12 2271.61 1729.12Z" fill="#FBC400"/>
<path d="M2269.78 1669.19C2270.52 1669.93 2267.83 1673.84 2263.91 1677.88C2260 1681.91 2256.09 1684.48 2255.35 1683.75C2254.62 1683.01 2257.19 1679.22 2261.22 1675.19C2265.26 1671.15 2269.05 1667.97 2269.78 1669.19Z" fill="#FBC400"/>
<path d="M2224.9 1684.6C2224.29 1685.34 2220.62 1683.5 2216.83 1680.32C2213.04 1677.14 2210.47 1673.96 2211.2 1673.11C2211.94 1672.25 2215.48 1674.21 2219.27 1677.39C2223.07 1680.57 2225.63 1683.75 2224.9 1684.6Z" fill="#FBC400"/>
<path d="M2223.19 1711.14C2223.92 1711.87 2221.6 1715.67 2218.05 1719.7C2214.51 1723.74 2210.84 1726.3 2209.98 1725.57C2209.12 1724.84 2211.57 1721.05 2215.12 1717.13C2218.66 1713.22 2222.33 1710.41 2223.19 1711.14Z" fill="#FBC400"/>
<path d="M3571.36 1191.63C3542.65 1194.78 3513.76 1195.84 3484.9 1194.81C3456.08 1195.84 3427.22 1194.78 3398.56 1191.63C3427.22 1188.41 3456.08 1187.35 3484.9 1188.45C3513.76 1187.35 3542.66 1188.42 3571.36 1191.63Z" fill="#263238"/>
<path d="M3571.36 1227.71C3542.66 1230.93 3513.76 1231.99 3484.9 1230.89C3456.08 1231.99 3427.22 1230.93 3398.56 1227.71C3427.22 1224.56 3456.08 1223.5 3484.9 1224.53C3513.76 1223.51 3542.65 1224.57 3571.36 1227.71Z" fill="#263238"/>
<path d="M3571.36 1263.54C3542.66 1266.76 3513.76 1267.82 3484.9 1266.72C3456.08 1267.83 3427.22 1266.76 3398.56 1263.54C3427.22 1260.4 3456.08 1259.33 3484.9 1260.36C3513.76 1259.34 3542.65 1260.4 3571.36 1263.54Z" fill="#263238"/>
<path d="M2560.69 4220.06L2963.39 4223.22L2967.38 3714.86L2564.68 3711.7L2560.69 4220.06Z" fill="#EBEBEB"/>
<path d="M2809.71 3729.97L2802.5 4222.09L2738.9 4221.6L2752.6 3729.48L2809.71 3729.97Z" fill="#FAFAFA"/>
<path d="M2333.25 3726.18L2564.27 3728.02L2966.98 3731.2L2563.9 3784.15L2560.47 4220.25L2329.46 4218.42L2333.25 3726.18Z" fill="#E0E0E0"/>
<path d="M2459.09 3727.16L2449.92 4219.4L2381.31 4218.78L2392.56 3726.67L2459.09 3727.16Z" fill="#FAFAFA"/>
<path d="M2641.92 3577.35C2641.92 3580.53 2635.2 3583.71 2622.84 3586.77C2592.87 3593.38 2562.1 3595.61 2531.49 3593.37C2524.64 3593.37 2517.55 3592.15 2510.09 3591.05C2502.16 3589.92 2494.31 3588.24 2486.61 3586.03C2481.54 3584.5 2476.66 3582.41 2472.06 3579.8C2465.93 3576.21 2460.7 3571.27 2456.77 3565.37C2452.59 3558.73 2450.3 3551.07 2450.16 3543.23C2450.14 3537.47 2450.8 3531.72 2452.12 3526.11C2455.72 3508.68 2460.88 3491.62 2467.53 3475.11C2471.51 3465.96 2476.47 3457.26 2482.33 3449.19C2485.33 3444.88 2488.64 3440.79 2492.23 3436.96C2496.29 3432.83 2500.8 3429.17 2505.69 3426.07C2511.26 3422.54 2517.44 3420.05 2523.91 3418.73C2530.84 3417.4 2537.98 3417.61 2544.82 3419.35C2555.05 3422.18 2564.47 3427.38 2572.34 3434.51C2593.88 3452.67 2611.84 3474.69 2625.29 3499.45C2634.28 3515.92 2640.28 3533.84 2643.02 3552.4C2644.61 3565.61 2643.02 3573.07 2640.09 3573.68C2633.61 3575.27 2624.19 3549.22 2598.51 3516.69C2583.57 3498.11 2566.17 3481.65 2546.78 3467.77C2543.21 3464.88 2539.03 3462.83 2534.55 3461.78C2533.83 3461.6 2533.07 3461.6 2532.35 3461.78C2531.14 3462.25 2529.99 3462.87 2528.92 3463.62C2527.08 3464.98 2525.37 3466.49 2523.79 3468.14C2521.95 3470.22 2519.87 3472.79 2518.04 3475.36C2514.23 3480.89 2511 3486.79 2508.38 3492.97C2502.82 3507.04 2498.21 3521.46 2494.56 3536.14C2493.93 3538.21 2493.52 3540.34 2493.33 3542.5H2492.11C2490.64 3542.5 2490.28 3543.23 2491.26 3542.5L2492.72 3541.4C2493.02 3541.83 2493.39 3542.2 2493.82 3542.5C2495.63 3543.67 2497.56 3544.66 2499.57 3545.43C2505.45 3547.58 2511.46 3549.37 2517.55 3550.81C2523.79 3552.52 2529.78 3553.87 2536.02 3555.09C2548.24 3557.54 2559.62 3559.25 2570.26 3560.72C2591.66 3563.53 2609.51 3565.49 2621.87 3567.81C2634.22 3570.13 2641.8 3574.29 2641.92 3577.35Z" fill="#E0E0E0"/>
<path d="M2633.61 3581.02C2632.51 3574.66 2662.59 3565.24 2709.55 3551.42C2736.56 3543.7 2763.03 3534.22 2788.8 3523.05C2794.92 3520.59 2800.71 3517.39 2806.04 3513.51C2807.88 3511.92 2808.73 3510.58 2808.49 3510.7C2808.24 3510.82 2808.49 3512.53 2807.88 3511.68C2807.13 3509.24 2806.18 3506.87 2805.06 3504.58L2799.19 3492.36C2795.59 3484.8 2791.51 3477.49 2786.96 3470.46C2782.92 3464.19 2778.11 3458.44 2772.66 3453.34C2770.11 3451.01 2767.42 3448.84 2764.58 3446.86C2762.3 3445.28 2759.84 3443.97 2757.25 3442.95C2753.42 3441.18 2749.1 3440.79 2745.02 3441.85C2739.76 3443.54 2734.93 3446.33 2730.83 3450.04C2709.94 3467.47 2691.43 3487.57 2675.8 3509.84C2648.77 3548.24 2641.68 3578.21 2634.95 3577.23C2632.02 3577.23 2629.82 3568.67 2630.92 3553.87C2632.91 3532.99 2638.8 3512.66 2648.28 3493.95C2662.07 3465.84 2680.74 3440.42 2703.44 3418.86C2711.58 3410.88 2721.34 3404.75 2732.05 3400.88C2744.97 3396.43 2759.01 3396.43 2771.92 3400.88C2777.81 3403.01 2783.43 3405.8 2788.68 3409.2C2793.48 3412.23 2798.02 3415.67 2802.25 3419.47C2810.69 3427.02 2818.09 3435.66 2824.26 3445.15C2829.94 3453.86 2834.97 3462.97 2839.31 3472.42L2845.18 3485.38C2847.99 3491.24 2850.01 3497.45 2851.17 3503.85C2852.67 3512.99 2851.08 3522.38 2846.64 3530.51C2842.98 3537.07 2837.88 3542.71 2831.72 3547.02C2823.22 3552.83 2813.96 3557.43 2804.21 3560.72C2775.68 3570.97 2746.11 3578.06 2716.03 3581.87C2665.65 3588.72 2634.34 3586.89 2633.61 3581.02Z" fill="#EBEBEB"/>
<path d="M2260.22 3725.4L2852.11 3730.05L2853.43 3561.78L2261.55 3557.13L2260.22 3725.4Z" fill="#E0E0E0"/>
<path d="M2477.8 3727.08L3012.82 3731.28L3014.14 3563.01L2479.12 3558.81L2477.8 3727.08Z" fill="#EBEBEB"/>
<path d="M2849.83 3561.94L2846.03 3730.95L2783.66 3729.73L2788.07 3561.45L2849.83 3561.94Z" fill="#FAFAFA"/>
<path d="M2406.51 3559.37L2400.39 3726.92L2331.79 3726.3L2335.45 3557.91L2406.51 3559.37Z" fill="#FAFAFA"/>
<path d="M2996.98 4210.8L3225.18 4212.6L3227.44 3924.6L2999.24 3922.81L2996.98 4210.8Z" fill="#EBEBEB"/>
<path d="M3137.95 3933.1L3133.91 4212.06L3097.84 4211.81L3105.54 3932.86L3137.95 3933.1Z" fill="#FAFAFA"/>
<path d="M2867.92 3931.03L2998.9 3932L3227.1 3933.84L2998.66 3963.92L2996.7 4210.96L2865.84 4209.98L2867.92 3931.03Z" fill="#E0E0E0"/>
<path d="M2939.22 3931.64L2934.09 4210.47L2895.2 4210.22L2901.55 3931.27L2939.22 3931.64Z" fill="#FAFAFA"/>
<path d="M3042.8 3846.64C3042.8 3850.92 3027.88 3856.06 3001.71 3858.87C2985.67 3860.15 2969.52 3858.83 2953.9 3854.96C2946.49 3853.19 2939.95 3848.85 2935.43 3842.73C2932.77 3838.51 2931.29 3833.65 2931.15 3828.66C2931.13 3825.13 2931.5 3821.6 2932.25 3818.15C2934.34 3808.08 2937.33 3798.21 2941.18 3788.67C2943.55 3783.3 2946.46 3778.18 2949.86 3773.39C2953.81 3767.77 2958.79 3762.96 2964.54 3759.2C2968.13 3756.92 2972.15 3755.37 2976.35 3754.66C2980.55 3753.95 2984.85 3754.08 2988.99 3755.04C2995.21 3756.85 3000.93 3760.02 3005.75 3764.34C3018.13 3774.92 3028.34 3787.79 3035.83 3802.25C3048.06 3826.71 3046.35 3844.93 3042.31 3845.54C3038.28 3846.15 3031.68 3832.21 3016.88 3814.48C3008.34 3804.25 2998.52 3795.16 2987.65 3787.45C2986.03 3786.14 2984.16 3785.18 2982.15 3784.64L2981.29 3785.25C2979.25 3786.93 2977.48 3788.91 2976.03 3791.12C2973.98 3794.06 2972.26 3797.22 2970.9 3800.54C2967.76 3808.5 2965.19 3816.67 2963.19 3825L2962.46 3827.81H2960.5H2958.67C2957.81 3827.81 2957.69 3827.81 2958.67 3827.81C2959.51 3827.29 2960.25 3826.62 2960.87 3825.85L2961.6 3825.12C2962.43 3825.72 2963.34 3826.21 2964.29 3826.59C2977.06 3830.88 2990.2 3833.95 3003.55 3835.76C3026.78 3839.3 3042.8 3842.12 3042.8 3846.64Z" fill="#E0E0E0"/>
<path d="M3037.91 3848.84C3037.06 3843.95 3054.06 3837.47 3080.23 3828.79C3095.2 3824.01 3109.89 3818.42 3124.25 3812.03C3127.34 3810.73 3130.26 3809.04 3132.94 3807.02C3133.67 3805.92 3133.67 3806.41 3132.94 3807.02C3132.38 3808.07 3132.08 3809.25 3132.08 3810.44L3127.55 3800.9C3125.56 3796.7 3123.31 3792.61 3120.83 3788.67C3118.8 3785.41 3116.33 3782.45 3113.49 3779.87C3111.42 3777.73 3108.97 3775.99 3106.28 3774.73C3105.05 3774.31 3103.71 3774.31 3102.48 3774.73C3100.01 3775.37 3097.73 3776.64 3095.88 3778.4C3084.22 3787.87 3073.75 3798.71 3064.7 3810.69C3048.92 3831.35 3043.78 3847.99 3038.77 3847.38C3033.76 3846.76 3030.7 3827.07 3043.42 3798.46C3051.03 3781.93 3061.64 3766.96 3074.72 3754.31C3079.73 3749.36 3085.73 3745.52 3092.33 3743.06C3100.57 3740.18 3109.54 3740.18 3117.77 3743.06C3121.47 3744.28 3125.01 3745.97 3128.29 3748.07C3131.21 3749.99 3133.99 3752.11 3136.6 3754.43C3141.66 3758.93 3146.1 3764.07 3149.81 3769.72C3153.06 3774.88 3156 3780.23 3158.62 3785.74L3161.92 3793.2C3163.75 3797.08 3165.03 3801.19 3165.71 3805.43C3166.7 3811.61 3165.58 3817.94 3162.53 3823.41C3160.12 3827.64 3156.82 3831.32 3152.87 3834.17C3147.74 3837.66 3142.14 3840.42 3136.24 3842.36C3119.74 3848.1 3102.62 3851.87 3085.24 3853.61C3056.62 3855.57 3038.89 3853.37 3037.91 3848.84Z" fill="#E0E0E0"/>
<path d="M2826.55 3930.64L3161.99 3933.27L3162.74 3837.88L2827.3 3835.25L2826.55 3930.64Z" fill="#E0E0E0"/>
<path d="M2950.08 3931.51L3253.23 3933.89L3253.98 3838.51L2950.83 3836.12L2950.08 3931.51Z" fill="#EBEBEB"/>
<path d="M3160.7 3837.96L3158.62 3933.72L3123.15 3932.98L3125.72 3837.71L3160.7 3837.96Z" fill="#FAFAFA"/>
<path d="M2909.5 3836.49L2906.08 3931.39L2867.19 3931.15L2869.27 3835.63L2909.5 3836.49Z" fill="#FAFAFA"/>
<path d="M4743.31 4453.95C4761.73 4462.74 4778.18 4475.16 4791.69 4490.46C4805.21 4505.75 4815.49 4523.62 4821.94 4542.98C4834.61 4581.89 4838.17 4623.19 4832.34 4663.69C4823.53 4741.96 4779.01 4820.96 4731.2 4883.82C4665.28 4826.34 4650.12 4725.94 4645.59 4674.57C4638.5 4593.37 4674.94 4442.21 4743.43 4454.44" fill="#FBC400"/>
<path d="M4807.76 5012.72C4803.26 4990.34 4804.76 4967.18 4812.1 4945.57C4819.45 4923.96 4832.38 4904.68 4849.58 4889.69C4867 4874.98 4887.18 4863.9 4908.93 4857.1C4930.69 4850.29 4953.59 4847.9 4976.28 4850.06C4997.31 4851.65 5019.94 4857.77 5031.92 4874.52C5037.06 4882.95 5039.86 4892.6 5040.01 4902.47C5040.16 4912.34 5037.66 4922.08 5032.78 4930.66C5022.81 4947.7 5008.51 4961.79 4991.32 4971.5C4934.21 5007.34 4872.33 5031.55 4807.88 5012.23" fill="#FBC400"/>
<path d="M4723.25 5252.66C4723.56 5247.26 4724.34 5241.9 4725.57 5236.64C4727.65 5225.26 4730.34 5210.71 4733.52 5193.1C4740.92 5144.72 4756.07 5097.85 4778.4 5054.3C4801.65 5010.78 4836.05 4974.23 4878.07 4948.39C4890.86 4940.83 4904.49 4934.8 4918.68 4930.41C4923.69 4928.7 4927.73 4928.09 4930.91 4927.36C4934.09 4926.62 4935.06 4926.62 4935.06 4927.36C4902.49 4937.91 4872.34 4954.86 4846.39 4977.2C4820.43 4999.54 4799.19 5026.83 4783.91 5057.48C4761.91 5100.6 4746.45 5146.77 4738.05 5194.45C4734.01 5212.67 4730.71 5227.47 4728.26 5237.49C4727.03 5242.68 4725.36 5247.76 4723.25 5252.66Z" fill="#263238"/>
<path d="M4725.57 4571.48C4726.14 4573.8 4726.43 4576.18 4726.43 4578.57C4726.43 4583.71 4727.16 4590.8 4727.65 4598.75C4728.51 4616.24 4729.61 4641.55 4730.59 4672.98C4732.54 4735.72 4734.13 4822.43 4733.77 4917.57C4733.4 5012.72 4731.07 5100.03 4728.38 5162.77C4727.16 5194.2 4725.94 5219.52 4724.84 5237C4724.23 5245.32 4723.86 5251.92 4723.49 5257.18C4724.35 5250.21 4722.27 5261.71 4722.27 5257.18C4722.27 5252.66 4722.27 5244.95 4722.27 5236.88C4722.27 5218.66 4723.25 5193.47 4723.98 5162.65C4725.57 5099.91 4727.28 5013.33 4727.77 4918.06C4728.26 4822.79 4727.16 4735.72 4726.18 4673.47C4726.18 4642.65 4725.33 4617.34 4724.96 4599.12C4724.96 4590.8 4724.96 4584.2 4724.96 4578.94C4724.99 4576.44 4725.19 4573.95 4725.57 4571.48Z" fill="#263238"/>
<path d="M4693.78 5060.29C4685.79 5012.86 4666.63 4968.02 4637.88 4929.47C4609.12 4890.91 4571.61 4859.76 4528.43 4838.57C4506.42 4828.05 4477.68 4821.08 4459.58 4837.47C4441.48 4853.86 4445.4 4883.33 4454.32 4906.2C4473.7 4953.45 4506.63 4993.91 4548.96 5022.48C4591.28 5051.05 4641.12 5066.46 4692.19 5066.77" fill="#FBC400"/>
<path d="M4539.07 4912.8C4543.96 4914.36 4548.67 4916.41 4553.14 4918.92C4558.57 4921.39 4563.84 4924.21 4568.91 4927.35C4575.81 4931.06 4582.51 4935.15 4588.97 4939.58C4597 4944.93 4604.71 4950.73 4612.08 4956.95C4620.66 4963.89 4628.82 4971.32 4636.54 4979.21C4654.28 4997.32 4669.91 5017.38 4683.13 5039.01C4695.95 5060.87 4706.21 5084.14 4713.71 5108.35C4716.95 5118.91 4719.57 5129.65 4721.54 5140.51C4723.4 5149.93 4724.71 5159.44 4725.45 5169.01C4726.67 5177.81 4726.18 5185.76 4726.55 5192.73C4726.95 5198.72 4726.95 5204.72 4726.55 5210.71C4726.45 5215.81 4725.88 5220.88 4724.84 5225.88C4723.49 5225.88 4725.69 5204.11 4721.9 5169.5C4720.89 5160.05 4719.38 5150.66 4717.38 5141.37C4715.54 5131.34 4712.36 5120.82 4709.18 5109.82C4701.54 5086.13 4691.28 5063.37 4678.61 5041.94C4665.66 5020.67 4650.45 5000.87 4633.24 4982.88C4625.73 4975 4617.81 4967.53 4609.51 4960.5C4601.93 4953.65 4594.1 4948.27 4587.13 4942.89C4558.39 4922.95 4538.46 4913.9 4539.07 4912.8Z" fill="#263238"/>
<path d="M2382.34 2851.27C2382.34 2866.61 2379.57 2879.87 2374.03 2891.05C2368.49 2902.22 2360.89 2910.84 2351.23 2916.9C2341.57 2922.96 2330.54 2925.99 2318.14 2925.99C2305.73 2925.99 2294.7 2922.96 2285.04 2916.9C2275.38 2910.84 2267.78 2902.22 2262.24 2891.05C2256.7 2879.87 2253.93 2866.61 2253.93 2851.27C2253.93 2835.93 2256.7 2822.67 2262.24 2811.5C2267.78 2800.33 2275.38 2791.71 2285.04 2785.65C2294.7 2779.59 2305.73 2776.56 2318.14 2776.56C2330.54 2776.56 2341.57 2779.59 2351.23 2785.65C2360.89 2791.71 2368.49 2800.33 2374.03 2811.5C2379.57 2822.67 2382.34 2835.93 2382.34 2851.27ZM2365.3 2851.27C2365.3 2838.68 2363.19 2828.05 2358.97 2819.38C2354.81 2810.72 2349.15 2804.16 2342 2799.71C2334.9 2795.26 2326.94 2793.03 2318.14 2793.03C2309.33 2793.03 2301.35 2795.26 2294.2 2799.71C2287.1 2804.16 2281.44 2810.72 2277.23 2819.38C2273.06 2828.05 2270.98 2838.68 2270.98 2851.27C2270.98 2863.87 2273.06 2874.5 2277.23 2883.16C2281.44 2891.83 2287.1 2898.38 2294.2 2902.84C2301.35 2907.29 2309.33 2909.51 2318.14 2909.51C2326.94 2909.51 2334.9 2907.29 2342 2902.84C2349.15 2898.38 2354.81 2891.83 2358.97 2883.16C2363.19 2874.5 2365.3 2863.87 2365.3 2851.27ZM2431.96 2924V2778.55H2448.72V2832.24H2450.14C2451.37 2830.34 2453.07 2827.93 2455.25 2824.99C2457.48 2822.01 2460.65 2819.36 2464.77 2817.04C2468.94 2814.67 2474.57 2813.49 2481.67 2813.49C2490.86 2813.49 2498.96 2815.79 2505.96 2820.38C2512.97 2824.97 2518.44 2831.48 2522.37 2839.91C2526.3 2848.34 2528.26 2858.28 2528.26 2869.74C2528.26 2881.29 2526.3 2891.31 2522.37 2899.78C2518.44 2908.21 2512.99 2914.74 2506.03 2919.38C2499.07 2923.98 2491.05 2926.27 2481.96 2926.27C2474.95 2926.27 2469.34 2925.11 2465.12 2922.79C2460.91 2920.43 2457.67 2917.75 2455.39 2914.77C2453.12 2911.74 2451.37 2909.23 2450.14 2907.24H2448.15V2924H2431.96ZM2448.43 2869.45C2448.43 2877.69 2449.64 2884.96 2452.06 2891.26C2454.47 2897.51 2458 2902.41 2462.64 2905.96C2467.28 2909.46 2472.96 2911.22 2479.68 2911.22C2486.69 2911.22 2492.54 2909.37 2497.23 2905.68C2501.96 2901.94 2505.51 2896.92 2507.88 2890.62C2510.3 2884.27 2511.5 2877.22 2511.5 2869.45C2511.5 2861.78 2510.32 2854.87 2507.95 2848.72C2505.63 2842.51 2502.1 2837.61 2497.37 2834.01C2492.68 2830.37 2486.79 2828.55 2479.68 2828.55C2472.87 2828.55 2467.14 2830.27 2462.5 2833.73C2457.86 2837.14 2454.35 2841.92 2451.99 2848.08C2449.62 2854.18 2448.43 2861.31 2448.43 2869.45ZM2573.9 2924V2814.91H2590.1V2831.39H2591.23C2593.22 2825.99 2596.82 2821.61 2602.03 2818.25C2607.24 2814.89 2613.11 2813.2 2619.64 2813.2C2620.87 2813.2 2622.41 2813.23 2624.26 2813.28C2626.11 2813.32 2627.5 2813.39 2628.45 2813.49V2830.53C2627.88 2830.39 2626.58 2830.18 2624.54 2829.89C2622.55 2829.56 2620.45 2829.4 2618.22 2829.4C2612.92 2829.4 2608.18 2830.51 2604.02 2832.74C2599.9 2834.91 2596.63 2837.94 2594.22 2841.83C2591.85 2845.66 2590.66 2850.04 2590.66 2854.97V2924H2573.9ZM2668.32 2924V2814.91H2685.08V2924H2668.32ZM2676.84 2796.73C2673.57 2796.73 2670.76 2795.61 2668.39 2793.39C2666.07 2791.16 2664.91 2788.49 2664.91 2785.36C2664.91 2782.24 2666.07 2779.56 2668.39 2777.34C2670.76 2775.11 2673.57 2774 2676.84 2774C2680.11 2774 2682.9 2775.11 2685.22 2777.34C2687.59 2779.56 2688.77 2782.24 2688.77 2785.36C2688.77 2788.49 2687.59 2791.16 2685.22 2793.39C2682.9 2795.61 2680.11 2796.73 2676.84 2796.73ZM2779.81 2967.18C2771.72 2967.18 2764.76 2966.14 2758.93 2964.06C2753.11 2962.02 2748.25 2959.32 2744.37 2955.96C2740.54 2952.65 2737.48 2949.09 2735.21 2945.31L2748.56 2935.93C2750.08 2937.92 2752 2940.19 2754.32 2942.75C2756.64 2945.35 2759.81 2947.6 2763.83 2949.5C2767.9 2951.44 2773.23 2952.41 2779.81 2952.41C2788.62 2952.41 2795.89 2950.28 2801.62 2946.02C2807.35 2941.76 2810.21 2935.08 2810.21 2925.99V2903.83H2808.79C2807.56 2905.82 2805.81 2908.28 2803.53 2911.22C2801.31 2914.1 2798.09 2916.68 2793.88 2918.96C2789.71 2921.18 2784.07 2922.3 2776.97 2922.3C2768.16 2922.3 2760.26 2920.21 2753.25 2916.05C2746.29 2911.88 2740.77 2905.82 2736.7 2897.86C2732.68 2889.91 2730.66 2880.25 2730.66 2868.89C2730.66 2857.71 2732.63 2847.98 2736.56 2839.7C2740.49 2831.36 2745.96 2824.92 2752.97 2820.38C2759.97 2815.79 2768.07 2813.49 2777.26 2813.49C2784.36 2813.49 2789.99 2814.67 2794.16 2817.04C2798.37 2819.36 2801.59 2822.01 2803.82 2824.99C2806.09 2827.93 2807.84 2830.34 2809.07 2832.24H2810.78V2814.91H2826.97V2927.12C2826.97 2936.5 2824.84 2944.12 2820.58 2949.99C2816.37 2955.91 2810.68 2960.25 2803.53 2962.99C2796.43 2965.79 2788.52 2967.18 2779.81 2967.18ZM2779.24 2907.24C2785.97 2907.24 2791.65 2905.7 2796.29 2902.62C2800.93 2899.54 2804.46 2895.12 2806.87 2889.34C2809.29 2883.56 2810.49 2876.65 2810.49 2868.6C2810.49 2860.74 2809.31 2853.81 2806.94 2847.79C2804.58 2841.78 2801.07 2837.07 2796.43 2833.66C2791.79 2830.25 2786.06 2828.55 2779.24 2828.55C2772.14 2828.55 2766.22 2830.34 2761.49 2833.94C2756.8 2837.54 2753.27 2842.37 2750.91 2848.43C2748.59 2854.49 2747.43 2861.22 2747.43 2868.6C2747.43 2876.18 2748.61 2882.88 2750.98 2888.7C2753.39 2894.48 2756.94 2899.02 2761.63 2902.34C2766.37 2905.61 2772.24 2907.24 2779.24 2907.24ZM2909.76 2926.56C2902.84 2926.56 2896.57 2925.25 2890.93 2922.65C2885.3 2920 2880.83 2916.19 2877.51 2911.22C2874.2 2906.2 2872.54 2900.14 2872.54 2893.03C2872.54 2886.78 2873.77 2881.72 2876.23 2877.84C2878.7 2873.91 2881.99 2870.83 2886.11 2868.6C2890.22 2866.38 2894.77 2864.72 2899.74 2863.63C2904.76 2862.49 2909.8 2861.59 2914.87 2860.93C2921.5 2860.08 2926.87 2859.44 2930.99 2859.01C2935.16 2858.54 2938.19 2857.76 2940.08 2856.67C2942.02 2855.58 2942.99 2853.69 2942.99 2850.99V2850.42C2942.99 2843.41 2941.08 2837.97 2937.24 2834.09C2933.45 2830.2 2927.7 2828.26 2919.98 2828.26C2911.98 2828.26 2905.71 2830.01 2901.16 2833.52C2896.62 2837.02 2893.42 2840.76 2891.57 2844.74L2875.66 2839.06C2878.51 2832.43 2882.29 2827.27 2887.03 2823.57C2891.81 2819.83 2897.02 2817.23 2902.65 2815.76C2908.34 2814.25 2913.92 2813.49 2919.41 2813.49C2922.92 2813.49 2926.94 2813.91 2931.49 2814.77C2936.08 2815.57 2940.51 2817.25 2944.77 2819.81C2949.08 2822.37 2952.65 2826.23 2955.49 2831.39C2958.34 2836.55 2959.76 2843.46 2959.76 2852.12V2924H2942.99V2909.23H2942.14C2941.01 2911.59 2939.11 2914.13 2936.46 2916.83C2933.81 2919.53 2930.28 2921.82 2925.88 2923.72C2921.47 2925.61 2916.1 2926.56 2909.76 2926.56ZM2912.31 2911.5C2918.94 2911.5 2924.53 2910.2 2929.07 2907.59C2933.67 2904.99 2937.12 2901.63 2939.44 2897.51C2941.81 2893.39 2942.99 2889.06 2942.99 2884.51V2869.17C2942.28 2870.02 2940.72 2870.8 2938.31 2871.51C2935.94 2872.18 2933.19 2872.77 2930.07 2873.29C2926.99 2873.76 2923.98 2874.19 2921.05 2874.57C2918.16 2874.9 2915.82 2875.18 2914.02 2875.42C2909.66 2875.99 2905.59 2876.91 2901.8 2878.19C2898.06 2879.42 2895.03 2881.29 2892.71 2883.8C2890.44 2886.26 2889.3 2889.62 2889.3 2893.89C2889.3 2899.71 2891.46 2904.11 2895.76 2907.1C2900.12 2910.03 2905.64 2911.5 2912.31 2911.5ZM3051.54 2926.27C3042.45 2926.27 3034.43 2923.98 3027.47 2919.38C3020.5 2914.74 3015.06 2908.21 3011.13 2899.78C3007.2 2891.31 3005.24 2881.29 3005.24 2869.74C3005.24 2858.28 3007.2 2848.34 3011.13 2839.91C3015.06 2831.48 3020.53 2824.97 3027.54 2820.38C3034.54 2815.79 3042.64 2813.49 3051.83 2813.49C3058.93 2813.49 3064.54 2814.67 3068.66 2817.04C3072.83 2819.36 3076 2822.01 3078.18 2824.99C3080.4 2827.93 3082.13 2830.34 3083.36 2832.24H3084.78V2778.55H3101.54V2924H3085.35V2907.24H3083.36C3082.13 2909.23 3080.38 2911.74 3078.1 2914.77C3075.83 2917.75 3072.59 2920.43 3068.37 2922.79C3064.16 2925.11 3058.55 2926.27 3051.54 2926.27ZM3053.81 2911.22C3060.54 2911.22 3066.22 2909.46 3070.86 2905.96C3075.5 2902.41 3079.03 2897.51 3081.44 2891.26C3083.86 2884.96 3085.06 2877.69 3085.06 2869.45C3085.06 2861.31 3083.88 2854.18 3081.51 2848.08C3079.15 2841.92 3075.64 2837.14 3071 2833.73C3066.36 2830.27 3060.63 2828.55 3053.81 2828.55C3046.71 2828.55 3040.79 2830.37 3036.06 2834.01C3031.37 2837.61 3027.84 2842.51 3025.48 2848.72C3023.16 2854.87 3022 2861.78 3022 2869.45C3022 2877.22 3023.18 2884.27 3025.55 2890.62C3027.96 2896.92 3031.51 2901.94 3036.2 2905.68C3040.94 2909.37 3046.81 2911.22 3053.81 2911.22ZM3198.89 2926.27C3189.04 2926.27 3180.4 2923.93 3172.96 2919.24C3165.58 2914.55 3159.8 2908 3155.63 2899.57C3151.51 2891.14 3149.45 2881.29 3149.45 2870.02C3149.45 2858.66 3151.51 2848.74 3155.63 2840.26C3159.8 2831.79 3165.58 2825.21 3172.96 2820.52C3180.4 2815.83 3189.04 2813.49 3198.89 2813.49C3208.73 2813.49 3217.35 2815.83 3224.74 2820.52C3232.17 2825.21 3237.95 2831.79 3242.07 2840.26C3246.23 2848.74 3248.32 2858.66 3248.32 2870.02C3248.32 2881.29 3246.23 2891.14 3242.07 2899.57C3237.95 2908 3232.17 2914.55 3224.74 2919.24C3217.35 2923.93 3208.73 2926.27 3198.89 2926.27ZM3198.89 2911.22C3206.37 2911.22 3212.52 2909.3 3217.35 2905.46C3222.18 2901.63 3225.76 2896.59 3228.08 2890.34C3230.4 2884.09 3231.56 2877.31 3231.56 2870.02C3231.56 2862.73 3230.4 2855.94 3228.08 2849.64C3225.76 2843.34 3222.18 2838.25 3217.35 2834.37C3212.52 2830.49 3206.37 2828.55 3198.89 2828.55C3191.4 2828.55 3185.25 2830.49 3180.42 2834.37C3175.59 2838.25 3172.02 2843.34 3169.7 2849.64C3167.38 2855.94 3166.22 2862.73 3166.22 2870.02C3166.22 2877.31 3167.38 2884.09 3169.7 2890.34C3172.02 2896.59 3175.59 2901.63 3180.42 2905.46C3185.25 2909.3 3191.4 2911.22 3198.89 2911.22Z" fill="#692FA3"/>
<path d="M1997.93 3086V3020.55H2020.04C2025.18 3020.55 2029.38 3021.47 2032.63 3023.33C2035.92 3025.16 2038.35 3027.64 2039.92 3030.77C2041.5 3033.9 2042.29 3037.4 2042.29 3041.26C2042.29 3045.11 2041.5 3048.62 2039.92 3051.77C2038.37 3054.92 2035.96 3057.44 2032.7 3059.31C2029.44 3061.17 2025.26 3062.09 2020.17 3062.09H2004.32V3055.06H2019.91C2023.43 3055.06 2026.25 3054.46 2028.38 3053.24C2030.51 3052.03 2032.06 3050.39 2033.02 3048.32C2034 3046.23 2034.49 3043.88 2034.49 3041.26C2034.49 3038.63 2034 3036.29 2033.02 3034.22C2032.06 3032.16 2030.5 3030.54 2028.35 3029.37C2026.2 3028.17 2023.35 3027.58 2019.79 3027.58H2005.85V3086H1997.93ZM2083.09 3087.02C2078.36 3087.02 2074.28 3085.98 2070.85 3083.89C2067.44 3081.78 2064.81 3078.84 2062.95 3075.07C2061.12 3071.28 2060.2 3066.87 2060.2 3061.84C2060.2 3056.81 2061.12 3052.38 2062.95 3048.54C2064.81 3044.69 2067.38 3041.68 2070.69 3039.53C2074.01 3037.36 2077.89 3036.27 2082.32 3036.27C2084.88 3036.27 2087.4 3036.7 2089.89 3037.55C2092.39 3038.4 2094.66 3039.79 2096.7 3041.7C2098.75 3043.6 2100.38 3046.11 2101.59 3049.25C2102.81 3052.38 2103.41 3056.23 2103.41 3060.82V3064.01H2065.57V3057.49H2095.74C2095.74 3054.72 2095.19 3052.25 2094.08 3050.08C2093 3047.9 2091.44 3046.19 2089.42 3044.93C2087.41 3043.67 2085.05 3043.05 2082.32 3043.05C2079.32 3043.05 2076.72 3043.79 2074.52 3045.28C2072.35 3046.75 2070.68 3048.67 2069.5 3051.04C2068.33 3053.4 2067.75 3055.94 2067.75 3058.64V3062.99C2067.75 3066.7 2068.39 3069.84 2069.66 3072.42C2070.96 3074.97 2072.76 3076.92 2075.07 3078.27C2077.37 3079.59 2080.04 3080.25 2083.09 3080.25C2085.07 3080.25 2086.86 3079.97 2088.46 3079.42C2090.08 3078.84 2091.47 3077.99 2092.64 3076.86C2093.82 3075.71 2094.72 3074.28 2095.36 3072.58L2102.65 3074.62C2101.88 3077.09 2100.59 3079.27 2098.78 3081.14C2096.97 3083 2094.73 3084.44 2092.07 3085.49C2089.4 3086.51 2086.41 3087.02 2083.09 3087.02ZM2142.42 3087.02C2138.33 3087.02 2134.72 3085.99 2131.59 3083.92C2128.46 3081.83 2126.01 3078.89 2124.24 3075.1C2122.47 3071.29 2121.59 3066.78 2121.59 3061.58C2121.59 3056.43 2122.47 3051.95 2124.24 3048.16C2126.01 3044.37 2128.47 3041.44 2131.62 3039.37C2134.78 3037.3 2138.42 3036.27 2142.55 3036.27C2145.75 3036.27 2148.27 3036.8 2150.13 3037.87C2152 3038.91 2153.43 3040.11 2154.41 3041.45C2155.41 3042.77 2156.19 3043.86 2156.74 3044.71H2157.38V3020.55H2164.92V3086H2157.64V3078.46H2156.74C2156.19 3079.35 2155.4 3080.48 2154.38 3081.85C2153.36 3083.19 2151.9 3084.39 2150 3085.46C2148.1 3086.5 2145.58 3087.02 2142.42 3087.02ZM2143.45 3080.25C2146.47 3080.25 2149.03 3079.46 2151.12 3077.88C2153.21 3076.28 2154.79 3074.08 2155.88 3071.27C2156.97 3068.43 2157.51 3065.16 2157.51 3061.45C2157.51 3057.79 2156.98 3054.58 2155.91 3051.83C2154.85 3049.06 2153.27 3046.91 2151.18 3045.38C2149.09 3043.82 2146.52 3043.05 2143.45 3043.05C2140.25 3043.05 2137.59 3043.87 2135.46 3045.51C2133.35 3047.13 2131.76 3049.33 2130.7 3052.12C2129.65 3054.89 2129.13 3058 2129.13 3061.45C2129.13 3064.95 2129.66 3068.12 2130.73 3070.98C2131.81 3073.81 2133.41 3076.07 2135.52 3077.75C2137.65 3079.42 2140.29 3080.25 2143.45 3080.25ZM2188.79 3086V3036.91H2196.33V3086H2188.79ZM2192.62 3028.73C2191.15 3028.73 2189.88 3028.23 2188.82 3027.23C2187.77 3026.22 2187.25 3025.02 2187.25 3023.61C2187.25 3022.21 2187.77 3021 2188.82 3020C2189.88 3019 2191.15 3018.5 2192.62 3018.5C2194.09 3018.5 2195.35 3019 2196.39 3020C2197.46 3021 2197.99 3022.21 2197.99 3023.61C2197.99 3025.02 2197.46 3026.22 2196.39 3027.23C2195.35 3028.23 2194.09 3028.73 2192.62 3028.73ZM2237.68 3087.02C2233.59 3087.02 2229.98 3085.99 2226.85 3083.92C2223.71 3081.83 2221.26 3078.89 2219.5 3075.1C2217.73 3071.29 2216.84 3066.78 2216.84 3061.58C2216.84 3056.43 2217.73 3051.95 2219.5 3048.16C2221.26 3044.37 2223.72 3041.44 2226.88 3039.37C2230.03 3037.3 2233.67 3036.27 2237.81 3036.27C2241 3036.27 2243.53 3036.8 2245.38 3037.87C2247.26 3038.91 2248.69 3040.11 2249.67 3041.45C2250.67 3042.77 2251.44 3043.86 2252 3044.71H2252.64V3020.55H2260.18V3086H2252.89V3078.46H2252C2251.44 3079.35 2250.66 3080.48 2249.63 3081.85C2248.61 3083.19 2247.15 3084.39 2245.26 3085.46C2243.36 3086.5 2240.83 3087.02 2237.68 3087.02ZM2238.7 3080.25C2241.73 3080.25 2244.29 3079.46 2246.37 3077.88C2248.46 3076.28 2250.05 3074.08 2251.14 3071.27C2252.22 3068.43 2252.77 3065.16 2252.77 3061.45C2252.77 3057.79 2252.23 3054.58 2251.17 3051.83C2250.1 3049.06 2248.53 3046.91 2246.44 3045.38C2244.35 3043.82 2241.77 3043.05 2238.7 3043.05C2235.51 3043.05 2232.84 3043.87 2230.71 3045.51C2228.6 3047.13 2227.02 3049.33 2225.95 3052.12C2224.91 3054.89 2224.39 3058 2224.39 3061.45C2224.39 3064.95 2224.92 3068.12 2225.98 3070.98C2227.07 3073.81 2228.67 3076.07 2230.78 3077.75C2232.91 3079.42 2235.55 3080.25 2238.7 3080.25ZM2303.99 3087.02C2299.55 3087.02 2295.66 3085.97 2292.32 3083.86C2289 3081.75 2286.4 3078.8 2284.52 3075.01C2282.67 3071.21 2281.74 3066.78 2281.74 3061.71C2281.74 3056.6 2282.67 3052.13 2284.52 3048.32C2286.4 3044.5 2289 3041.54 2292.32 3039.43C2295.66 3037.32 2299.55 3036.27 2303.99 3036.27C2308.42 3036.27 2312.29 3037.32 2315.62 3039.43C2318.96 3041.54 2321.56 3044.5 2323.42 3048.32C2325.29 3052.13 2326.23 3056.6 2326.23 3061.71C2326.23 3066.78 2325.29 3071.21 2323.42 3075.01C2321.56 3078.8 2318.96 3081.75 2315.62 3083.86C2312.29 3085.97 2308.42 3087.02 2303.99 3087.02ZM2303.99 3080.25C2307.35 3080.25 2310.12 3079.38 2312.29 3077.66C2314.47 3075.93 2316.08 3073.66 2317.12 3070.85C2318.16 3068.04 2318.69 3064.99 2318.69 3061.71C2318.69 3058.43 2318.16 3055.37 2317.12 3052.54C2316.08 3049.7 2314.47 3047.41 2312.29 3045.67C2310.12 3043.92 2307.35 3043.05 2303.99 3043.05C2300.62 3043.05 2297.85 3043.92 2295.68 3045.67C2293.5 3047.41 2291.89 3049.7 2290.85 3052.54C2289.81 3055.37 2289.28 3058.43 2289.28 3061.71C2289.28 3064.99 2289.81 3068.04 2290.85 3070.85C2291.89 3073.66 2293.5 3075.93 2295.68 3077.66C2297.85 3079.38 2300.62 3080.25 2303.99 3080.25ZM2381.06 3086V3036.91H2388.34V3044.32H2388.85C2389.75 3041.89 2391.37 3039.92 2393.71 3038.41C2396.06 3036.9 2398.7 3036.14 2401.64 3036.14C2402.19 3036.14 2402.88 3036.15 2403.72 3036.17C2404.55 3036.2 2405.18 3036.23 2405.6 3036.27V3043.94C2405.35 3043.88 2404.76 3043.78 2403.84 3043.65C2402.95 3043.5 2402 3043.43 2401 3043.43C2398.61 3043.43 2396.48 3043.93 2394.61 3044.93C2392.75 3045.91 2391.28 3047.27 2390.2 3049.02C2389.13 3050.75 2388.6 3052.72 2388.6 3054.93V3086H2381.06ZM2442.63 3087.02C2437.9 3087.02 2433.82 3085.98 2430.39 3083.89C2426.98 3081.78 2424.35 3078.84 2422.5 3075.07C2420.66 3071.28 2419.75 3066.87 2419.75 3061.84C2419.75 3056.81 2420.66 3052.38 2422.5 3048.54C2424.35 3044.69 2426.93 3041.68 2430.23 3039.53C2433.55 3037.36 2437.43 3036.27 2441.86 3036.27C2444.42 3036.27 2446.94 3036.7 2449.44 3037.55C2451.93 3038.4 2454.2 3039.79 2456.25 3041.7C2458.29 3043.6 2459.92 3046.11 2461.14 3049.25C2462.35 3052.38 2462.96 3056.23 2462.96 3060.82V3064.01H2425.12V3057.49H2455.29C2455.29 3054.72 2454.73 3052.25 2453.62 3050.08C2452.54 3047.9 2450.98 3046.19 2448.96 3044.93C2446.96 3043.67 2444.59 3043.05 2441.86 3043.05C2438.86 3043.05 2436.26 3043.79 2434.06 3045.28C2431.89 3046.75 2430.22 3048.67 2429.05 3051.04C2427.88 3053.4 2427.29 3055.94 2427.29 3058.64V3062.99C2427.29 3066.7 2427.93 3069.84 2429.21 3072.42C2430.51 3074.97 2432.31 3076.92 2434.61 3078.27C2436.91 3079.59 2439.58 3080.25 2442.63 3080.25C2444.61 3080.25 2446.4 3079.97 2448 3079.42C2449.62 3078.84 2451.01 3077.99 2452.19 3076.86C2453.36 3075.71 2454.26 3074.28 2454.9 3072.58L2462.19 3074.62C2461.42 3077.09 2460.13 3079.27 2458.32 3081.14C2456.51 3083 2454.27 3084.44 2451.61 3085.49C2448.95 3086.51 2445.95 3087.02 2442.63 3087.02ZM2497.88 3087.15C2494.77 3087.15 2491.94 3086.56 2489.41 3085.39C2486.87 3084.2 2484.86 3082.48 2483.37 3080.25C2481.88 3077.99 2481.13 3075.26 2481.13 3072.07C2481.13 3069.25 2481.68 3066.97 2482.79 3065.23C2483.9 3063.46 2485.38 3062.07 2487.23 3061.07C2489.09 3060.07 2491.13 3059.32 2493.37 3058.83C2495.63 3058.32 2497.9 3057.92 2500.18 3057.62C2503.16 3057.24 2505.58 3056.95 2507.43 3056.76C2509.31 3056.54 2510.67 3056.19 2511.52 3055.7C2512.4 3055.21 2512.83 3054.36 2512.83 3053.14V3052.89C2512.83 3049.74 2511.97 3047.29 2510.25 3045.54C2508.54 3043.79 2505.95 3042.92 2502.48 3042.92C2498.88 3042.92 2496.06 3043.71 2494.01 3045.28C2491.96 3046.86 2490.53 3048.54 2489.69 3050.33L2482.54 3047.78C2483.81 3044.79 2485.52 3042.47 2487.65 3040.81C2489.8 3039.12 2492.15 3037.95 2494.68 3037.29C2497.24 3036.61 2499.75 3036.27 2502.22 3036.27C2503.8 3036.27 2505.61 3036.46 2507.66 3036.85C2509.72 3037.21 2511.72 3037.96 2513.63 3039.11C2515.57 3040.26 2517.18 3042 2518.46 3044.32C2519.74 3046.65 2520.38 3049.76 2520.38 3053.66V3086H2512.83V3079.35H2512.45C2511.94 3080.42 2511.09 3081.56 2509.89 3082.77C2508.7 3083.99 2507.11 3085.02 2505.13 3085.87C2503.15 3086.72 2500.73 3087.15 2497.88 3087.15ZM2499.03 3080.38C2502.01 3080.38 2504.52 3079.79 2506.57 3078.62C2508.64 3077.45 2510.19 3075.93 2511.24 3074.08C2512.3 3072.23 2512.83 3070.28 2512.83 3068.23V3061.33C2512.51 3061.71 2511.81 3062.06 2510.72 3062.38C2509.66 3062.68 2508.42 3062.95 2507.02 3063.18C2505.63 3063.39 2504.28 3063.59 2502.96 3063.76C2501.66 3063.9 2500.6 3064.03 2499.79 3064.14C2497.83 3064.39 2496 3064.81 2494.3 3065.39C2492.61 3065.94 2491.25 3066.78 2490.21 3067.91C2489.18 3069.02 2488.67 3070.53 2488.67 3072.45C2488.67 3075.07 2489.64 3077.05 2491.58 3078.39C2493.54 3079.71 2496.02 3080.38 2499.03 3080.38ZM2550.69 3020.55V3086H2543.14V3020.55H2550.69ZM2573.5 3086V3036.91H2581.04V3086H2573.5ZM2577.34 3028.73C2575.87 3028.73 2574.6 3028.23 2573.53 3027.23C2572.49 3026.22 2571.97 3025.02 2571.97 3023.61C2571.97 3022.21 2572.49 3021 2573.53 3020C2574.6 3019 2575.87 3018.5 2577.34 3018.5C2578.81 3018.5 2580.06 3019 2581.11 3020C2582.17 3021 2582.71 3022.21 2582.71 3023.61C2582.71 3025.02 2582.17 3026.22 2581.11 3027.23C2580.06 3028.23 2578.81 3028.73 2577.34 3028.73ZM2602.45 3086V3080.25L2630.32 3044.45V3043.94H2603.35V3036.91H2640.04V3042.92L2612.94 3078.46V3078.97H2640.93V3086H2602.45ZM2676 3087.15C2672.89 3087.15 2670.06 3086.56 2667.53 3085.39C2664.99 3084.2 2662.98 3082.48 2661.49 3080.25C2659.99 3077.99 2659.25 3075.26 2659.25 3072.07C2659.25 3069.25 2659.8 3066.97 2660.91 3065.23C2662.02 3063.46 2663.5 3062.07 2665.35 3061.07C2667.21 3060.07 2669.25 3059.32 2671.49 3058.83C2673.75 3058.32 2676.02 3057.92 2678.3 3057.62C2681.28 3057.24 2683.7 3056.95 2685.55 3056.76C2687.43 3056.54 2688.79 3056.19 2689.64 3055.7C2690.52 3055.21 2690.95 3054.36 2690.95 3053.14V3052.89C2690.95 3049.74 2690.09 3047.29 2688.36 3045.54C2686.66 3043.79 2684.07 3042.92 2680.6 3042.92C2677 3042.92 2674.17 3043.71 2672.13 3045.28C2670.08 3046.86 2668.65 3048.54 2667.81 3050.33L2660.66 3047.78C2661.93 3044.79 2663.64 3042.47 2665.77 3040.81C2667.92 3039.12 2670.26 3037.95 2672.8 3037.29C2675.36 3036.61 2677.87 3036.27 2680.34 3036.27C2681.92 3036.27 2683.73 3036.46 2685.78 3036.85C2687.84 3037.21 2689.83 3037.96 2691.75 3039.11C2693.69 3040.26 2695.3 3042 2696.58 3044.32C2697.86 3046.65 2698.5 3049.76 2698.5 3053.66V3086H2690.95V3079.35H2690.57C2690.06 3080.42 2689.21 3081.56 2688.01 3082.77C2686.82 3083.99 2685.23 3085.02 2683.25 3085.87C2681.27 3086.72 2678.85 3087.15 2676 3087.15ZM2677.15 3080.38C2680.13 3080.38 2682.64 3079.79 2684.69 3078.62C2686.76 3077.45 2688.31 3075.93 2689.36 3074.08C2690.42 3072.23 2690.95 3070.28 2690.95 3068.23V3061.33C2690.63 3061.71 2689.93 3062.06 2688.84 3062.38C2687.78 3062.68 2686.54 3062.95 2685.14 3063.18C2683.75 3063.39 2682.4 3063.59 2681.08 3063.76C2679.78 3063.9 2678.72 3064.03 2677.91 3064.14C2675.95 3064.39 2674.12 3064.81 2672.42 3065.39C2670.73 3065.94 2669.37 3066.78 2668.33 3067.91C2667.3 3069.02 2666.79 3070.53 2666.79 3072.45C2666.79 3075.07 2667.76 3077.05 2669.7 3078.39C2671.66 3079.71 2674.14 3080.38 2677.15 3080.38ZM2739.8 3087.02C2735.71 3087.02 2732.1 3085.99 2728.97 3083.92C2725.83 3081.83 2723.38 3078.89 2721.61 3075.1C2719.85 3071.29 2718.96 3066.78 2718.96 3061.58C2718.96 3056.43 2719.85 3051.95 2721.61 3048.16C2723.38 3044.37 2725.84 3041.44 2729 3039.37C2732.15 3037.3 2735.79 3036.27 2739.93 3036.27C2743.12 3036.27 2745.65 3036.8 2747.5 3037.87C2749.38 3038.91 2750.8 3040.11 2751.78 3041.45C2752.79 3042.77 2753.56 3043.86 2754.12 3044.71H2754.76V3020.55H2762.3V3086H2755.01V3078.46H2754.12C2753.56 3079.35 2752.78 3080.48 2751.75 3081.85C2750.73 3083.19 2749.27 3084.39 2747.37 3085.46C2745.48 3086.5 2742.95 3087.02 2739.8 3087.02ZM2740.82 3080.25C2743.85 3080.25 2746.4 3079.46 2748.49 3077.88C2750.58 3076.28 2752.17 3074.08 2753.25 3071.27C2754.34 3068.43 2754.88 3065.16 2754.88 3061.45C2754.88 3057.79 2754.35 3054.58 2753.29 3051.83C2752.22 3049.06 2750.64 3046.91 2748.56 3045.38C2746.47 3043.82 2743.89 3043.05 2740.82 3043.05C2737.63 3043.05 2734.96 3043.87 2732.83 3045.51C2730.72 3047.13 2729.14 3049.33 2728.07 3052.12C2727.03 3054.89 2726.5 3058 2726.5 3061.45C2726.5 3064.95 2727.04 3068.12 2728.1 3070.98C2729.19 3073.81 2730.79 3076.07 2732.9 3077.75C2735.03 3079.42 2737.67 3080.25 2740.82 3080.25ZM2806.1 3087.02C2801.67 3087.02 2797.78 3085.97 2794.44 3083.86C2791.12 3081.75 2788.52 3078.8 2786.64 3075.01C2784.79 3071.21 2783.86 3066.78 2783.86 3061.71C2783.86 3056.6 2784.79 3052.13 2786.64 3048.32C2788.52 3044.5 2791.12 3041.54 2794.44 3039.43C2797.78 3037.32 2801.67 3036.27 2806.1 3036.27C2810.54 3036.27 2814.41 3037.32 2817.74 3039.43C2821.08 3041.54 2823.68 3044.5 2825.54 3048.32C2827.41 3052.13 2828.35 3056.6 2828.35 3061.71C2828.35 3066.78 2827.41 3071.21 2825.54 3075.01C2823.68 3078.8 2821.08 3081.75 2817.74 3083.86C2814.41 3085.97 2810.54 3087.02 2806.1 3087.02ZM2806.1 3080.25C2809.47 3080.25 2812.24 3079.38 2814.41 3077.66C2816.59 3075.93 2818.2 3073.66 2819.24 3070.85C2820.28 3068.04 2820.81 3064.99 2820.81 3061.71C2820.81 3058.43 2820.28 3055.37 2819.24 3052.54C2818.2 3049.7 2816.59 3047.41 2814.41 3045.67C2812.24 3043.92 2809.47 3043.05 2806.1 3043.05C2802.74 3043.05 2799.97 3043.92 2797.79 3045.67C2795.62 3047.41 2794.01 3049.7 2792.97 3052.54C2791.92 3055.37 2791.4 3058.43 2791.4 3061.71C2791.4 3064.99 2791.92 3068.04 2792.97 3070.85C2794.01 3073.66 2795.62 3075.93 2797.79 3077.66C2799.97 3079.38 2802.74 3080.25 2806.1 3080.25ZM2903.12 3087.02C2898.52 3087.02 2894.55 3085.94 2891.23 3083.76C2887.91 3081.59 2885.35 3078.6 2883.56 3074.78C2881.77 3070.97 2880.87 3066.61 2880.87 3061.71C2880.87 3056.72 2881.79 3052.32 2883.62 3048.51C2885.48 3044.68 2888.05 3041.68 2891.36 3039.53C2894.68 3037.36 2898.56 3036.27 2902.99 3036.27C2906.44 3036.27 2909.55 3036.91 2912.32 3038.19C2915.09 3039.47 2917.36 3041.26 2919.13 3043.56C2920.9 3045.86 2922 3048.54 2922.42 3051.61H2914.88C2914.3 3049.37 2913.03 3047.39 2911.04 3045.67C2909.08 3043.92 2906.44 3043.05 2903.12 3043.05C2900.18 3043.05 2897.6 3043.81 2895.38 3045.35C2893.19 3046.86 2891.47 3049 2890.24 3051.77C2889.02 3054.52 2888.42 3057.75 2888.42 3061.45C2888.42 3065.25 2889.01 3068.55 2890.21 3071.36C2891.42 3074.17 2893.13 3076.36 2895.32 3077.91C2897.54 3079.47 2900.14 3080.25 2903.12 3080.25C2905.08 3080.25 2906.86 3079.91 2908.46 3079.22C2910.05 3078.54 2911.41 3077.56 2912.51 3076.28C2913.62 3075.01 2914.41 3073.47 2914.88 3071.68H2922.42C2922 3074.58 2920.94 3077.19 2919.26 3079.51C2917.6 3081.81 2915.39 3083.65 2912.64 3085.01C2909.91 3086.35 2906.74 3087.02 2903.12 3087.02ZM2962.39 3087.02C2957.96 3087.02 2954.07 3085.97 2950.73 3083.86C2947.4 3081.75 2944.8 3078.8 2942.93 3075.01C2941.07 3071.21 2940.15 3066.78 2940.15 3061.71C2940.15 3056.6 2941.07 3052.13 2942.93 3048.32C2944.8 3044.5 2947.4 3041.54 2950.73 3039.43C2954.07 3037.32 2957.96 3036.27 2962.39 3036.27C2966.82 3036.27 2970.7 3037.32 2974.03 3039.43C2977.37 3041.54 2979.97 3044.5 2981.82 3048.32C2983.7 3052.13 2984.64 3056.6 2984.64 3061.71C2984.64 3066.78 2983.7 3071.21 2981.82 3075.01C2979.97 3078.8 2977.37 3081.75 2974.03 3083.86C2970.7 3085.97 2966.82 3087.02 2962.39 3087.02ZM2962.39 3080.25C2965.76 3080.25 2968.53 3079.38 2970.7 3077.66C2972.87 3075.93 2974.48 3073.66 2975.53 3070.85C2976.57 3068.04 2977.09 3064.99 2977.09 3061.71C2977.09 3058.43 2976.57 3055.37 2975.53 3052.54C2974.48 3049.7 2972.87 3047.41 2970.7 3045.67C2968.53 3043.92 2965.76 3043.05 2962.39 3043.05C2959.03 3043.05 2956.26 3043.92 2954.08 3045.67C2951.91 3047.41 2950.3 3049.7 2949.26 3052.54C2948.21 3055.37 2947.69 3058.43 2947.69 3061.71C2947.69 3064.99 2948.21 3068.04 2949.26 3070.85C2950.3 3073.66 2951.91 3075.93 2954.08 3077.66C2956.26 3079.38 2959.03 3080.25 2962.39 3080.25ZM3005.15 3086V3036.91H3012.44V3044.58H3013.08C3014.1 3041.96 3015.75 3039.92 3018.03 3038.48C3020.31 3037 3023.05 3036.27 3026.24 3036.27C3029.48 3036.27 3032.18 3037 3034.33 3038.48C3036.5 3039.92 3038.2 3041.96 3039.41 3044.58H3039.92C3041.18 3042.04 3043.06 3040.03 3045.58 3038.54C3048.09 3037.03 3051.11 3036.27 3054.62 3036.27C3059.01 3036.27 3062.6 3037.64 3065.39 3040.39C3068.19 3043.12 3069.58 3047.37 3069.58 3053.14V3086H3062.04V3053.14C3062.04 3049.52 3061.05 3046.93 3059.07 3045.38C3057.08 3043.82 3054.75 3043.05 3052.07 3043.05C3048.62 3043.05 3045.94 3044.09 3044.05 3046.18C3042.15 3048.24 3041.2 3050.87 3041.2 3054.04V3086H3033.53V3052.38C3033.53 3049.59 3032.62 3047.34 3030.81 3045.63C3029 3043.91 3026.67 3043.05 3023.81 3043.05C3021.85 3043.05 3020.02 3043.57 3018.32 3044.61C3016.63 3045.66 3015.27 3047.1 3014.23 3048.96C3013.2 3050.79 3012.69 3052.91 3012.69 3055.32V3086H3005.15ZM3161.46 3047.9L3154.68 3049.82C3154.26 3048.69 3153.63 3047.59 3152.8 3046.53C3151.99 3045.44 3150.88 3044.55 3149.47 3043.84C3148.07 3043.14 3146.27 3042.79 3144.07 3042.79C3141.07 3042.79 3138.56 3043.48 3136.56 3044.87C3134.58 3046.23 3133.59 3047.97 3133.59 3050.08C3133.59 3051.95 3134.27 3053.43 3135.63 3054.52C3137 3055.61 3139.13 3056.51 3142.03 3057.24L3149.31 3059.03C3153.7 3060.09 3156.97 3061.72 3159.12 3063.92C3161.28 3066.09 3162.35 3068.89 3162.35 3072.32C3162.35 3075.13 3161.54 3077.65 3159.92 3079.86C3158.33 3082.08 3156.09 3083.83 3153.21 3085.11C3150.34 3086.38 3146.99 3087.02 3143.18 3087.02C3138.17 3087.02 3134.02 3085.94 3130.74 3083.76C3127.46 3081.59 3125.38 3078.41 3124.51 3074.24L3131.67 3072.45C3132.35 3075.09 3133.64 3077.07 3135.54 3078.39C3137.46 3079.71 3139.96 3080.38 3143.05 3080.38C3146.56 3080.38 3149.36 3079.63 3151.42 3078.14C3153.51 3076.62 3154.55 3074.81 3154.55 3072.7C3154.55 3071 3153.96 3069.57 3152.76 3068.42C3151.57 3067.25 3149.74 3066.38 3147.27 3065.8L3139.09 3063.88C3134.59 3062.82 3131.29 3061.17 3129.18 3058.93C3127.09 3056.67 3126.05 3053.85 3126.05 3050.46C3126.05 3047.69 3126.82 3045.24 3128.38 3043.11C3129.96 3040.98 3132.1 3039.31 3134.8 3038.09C3137.53 3036.88 3140.62 3036.27 3144.07 3036.27C3148.93 3036.27 3152.74 3037.34 3155.51 3039.47C3158.3 3041.6 3160.29 3044.41 3161.46 3047.9ZM3213.64 3065.93V3036.91H3221.19V3086H3213.64V3077.69H3213.13C3211.98 3080.18 3210.19 3082.3 3207.76 3084.05C3205.33 3085.78 3202.27 3086.64 3198.56 3086.64C3195.49 3086.64 3192.76 3085.97 3190.38 3084.63C3187.99 3083.26 3186.12 3081.22 3184.75 3078.49C3183.39 3075.74 3182.71 3072.28 3182.71 3068.1V3036.91H3190.25V3067.59C3190.25 3071.17 3191.25 3074.03 3193.25 3076.16C3195.28 3078.29 3197.86 3079.35 3200.99 3079.35C3202.86 3079.35 3204.77 3078.87 3206.71 3077.91C3208.67 3076.96 3210.31 3075.49 3211.63 3073.5C3212.97 3071.52 3213.64 3069 3213.64 3065.93ZM3263.94 3087.02C3259.34 3087.02 3255.38 3085.94 3252.06 3083.76C3248.73 3081.59 3246.17 3078.6 3244.38 3074.78C3242.59 3070.97 3241.7 3066.61 3241.7 3061.71C3241.7 3056.72 3242.62 3052.32 3244.45 3048.51C3246.3 3044.68 3248.88 3041.68 3252.18 3039.53C3255.51 3037.36 3259.38 3036.27 3263.82 3036.27C3267.27 3036.27 3270.38 3036.91 3273.15 3038.19C3275.92 3039.47 3278.19 3041.26 3279.96 3043.56C3281.72 3045.86 3282.82 3048.54 3283.25 3051.61H3275.71C3275.13 3049.37 3273.85 3047.39 3271.87 3045.67C3269.91 3043.92 3267.27 3043.05 3263.94 3043.05C3261 3043.05 3258.43 3043.81 3256.21 3045.35C3254.02 3046.86 3252.3 3049 3251.06 3051.77C3249.85 3054.52 3249.24 3057.75 3249.24 3061.45C3249.24 3065.25 3249.84 3068.55 3251.03 3071.36C3252.25 3074.17 3253.95 3076.36 3256.15 3077.91C3258.36 3079.47 3260.96 3080.25 3263.94 3080.25C3265.9 3080.25 3267.68 3079.91 3269.28 3079.22C3270.88 3078.54 3272.23 3077.56 3273.34 3076.28C3274.45 3075.01 3275.24 3073.47 3275.71 3071.68H3283.25C3282.82 3074.58 3281.77 3077.19 3280.08 3079.51C3278.42 3081.81 3276.22 3083.65 3273.47 3085.01C3270.74 3086.35 3267.57 3087.02 3263.94 3087.02ZM3323.86 3087.02C3319.13 3087.02 3315.05 3085.98 3311.62 3083.89C3308.21 3081.78 3305.58 3078.84 3303.72 3075.07C3301.89 3071.28 3300.97 3066.87 3300.97 3061.84C3300.97 3056.81 3301.89 3052.38 3303.72 3048.54C3305.58 3044.69 3308.15 3041.68 3311.46 3039.53C3314.78 3037.36 3318.66 3036.27 3323.09 3036.27C3325.65 3036.27 3328.17 3036.7 3330.66 3037.55C3333.16 3038.4 3335.43 3039.79 3337.47 3041.7C3339.52 3043.6 3341.15 3046.11 3342.36 3049.25C3343.58 3052.38 3344.18 3056.23 3344.18 3060.82V3064.01H3306.34V3057.49H3336.51C3336.51 3054.72 3335.96 3052.25 3334.85 3050.08C3333.76 3047.9 3332.21 3046.19 3330.19 3044.93C3328.18 3043.67 3325.82 3043.05 3323.09 3043.05C3320.09 3043.05 3317.49 3043.79 3315.29 3045.28C3313.12 3046.75 3311.45 3048.67 3310.27 3051.04C3309.1 3053.4 3308.52 3055.94 3308.52 3058.64V3062.99C3308.52 3066.7 3309.16 3069.84 3310.43 3072.42C3311.73 3074.97 3313.53 3076.92 3315.83 3078.27C3318.14 3079.59 3320.81 3080.25 3323.86 3080.25C3325.84 3080.25 3327.63 3079.97 3329.23 3079.42C3330.85 3078.84 3332.24 3077.99 3333.41 3076.86C3334.58 3075.71 3335.49 3074.28 3336.13 3072.58L3343.42 3074.62C3342.65 3077.09 3341.36 3079.27 3339.55 3081.14C3337.74 3083 3335.5 3084.44 3332.84 3085.49C3330.17 3086.51 3327.18 3087.02 3323.86 3087.02ZM3399.43 3047.9L3392.65 3049.82C3392.23 3048.69 3391.6 3047.59 3390.77 3046.53C3389.96 3045.44 3388.85 3044.55 3387.44 3043.84C3386.04 3043.14 3384.24 3042.79 3382.04 3042.79C3379.04 3042.79 3376.54 3043.48 3374.53 3044.87C3372.55 3046.23 3371.56 3047.97 3371.56 3050.08C3371.56 3051.95 3372.24 3053.43 3373.61 3054.52C3374.97 3055.61 3377.1 3056.51 3380 3057.24L3387.29 3059.03C3391.67 3060.09 3394.94 3061.72 3397.1 3063.92C3399.25 3066.09 3400.32 3068.89 3400.32 3072.32C3400.32 3075.13 3399.52 3077.65 3397.9 3079.86C3396.3 3082.08 3394.06 3083.83 3391.18 3085.11C3388.31 3086.38 3384.96 3087.02 3381.15 3087.02C3376.14 3087.02 3372 3085.94 3368.72 3083.76C3365.44 3081.59 3363.36 3078.41 3362.48 3074.24L3369.64 3072.45C3370.32 3075.09 3371.61 3077.07 3373.51 3078.39C3375.43 3079.71 3377.93 3080.38 3381.02 3080.38C3384.54 3080.38 3387.33 3079.63 3389.39 3078.14C3391.48 3076.62 3392.53 3074.81 3392.53 3072.7C3392.53 3071 3391.93 3069.57 3390.74 3068.42C3389.54 3067.25 3387.71 3066.38 3385.24 3065.8L3377.06 3063.88C3372.56 3062.82 3369.26 3061.17 3367.15 3058.93C3365.06 3056.67 3364.02 3053.85 3364.02 3050.46C3364.02 3047.69 3364.8 3045.24 3366.35 3043.11C3367.93 3040.98 3370.07 3039.31 3372.78 3038.09C3375.5 3036.88 3378.59 3036.27 3382.04 3036.27C3386.9 3036.27 3390.72 3037.34 3393.49 3039.47C3396.28 3041.6 3398.26 3044.41 3399.43 3047.9ZM3455.45 3047.9L3448.68 3049.82C3448.25 3048.69 3447.62 3047.59 3446.79 3046.53C3445.98 3045.44 3444.87 3044.55 3443.47 3043.84C3442.06 3043.14 3440.26 3042.79 3438.07 3042.79C3435.06 3042.79 3432.56 3043.48 3430.55 3044.87C3428.57 3046.23 3427.58 3047.97 3427.58 3050.08C3427.58 3051.95 3428.26 3053.43 3429.63 3054.52C3430.99 3055.61 3433.12 3056.51 3436.02 3057.24L3443.31 3059.03C3447.7 3060.09 3450.97 3061.72 3453.12 3063.92C3455.27 3066.09 3456.35 3068.89 3456.35 3072.32C3456.35 3075.13 3455.54 3077.65 3453.92 3079.86C3452.32 3082.08 3450.08 3083.83 3447.21 3085.11C3444.33 3086.38 3440.98 3087.02 3437.17 3087.02C3432.16 3087.02 3428.02 3085.94 3424.74 3083.76C3421.46 3081.59 3419.38 3078.41 3418.51 3074.24L3425.66 3072.45C3426.35 3075.09 3427.64 3077.07 3429.53 3078.39C3431.45 3079.71 3433.95 3080.38 3437.04 3080.38C3440.56 3080.38 3443.35 3079.63 3445.42 3078.14C3447.5 3076.62 3448.55 3074.81 3448.55 3072.7C3448.55 3071 3447.95 3069.57 3446.76 3068.42C3445.57 3067.25 3443.73 3066.38 3441.26 3065.8L3433.08 3063.88C3428.58 3062.82 3425.28 3061.17 3423.17 3058.93C3421.08 3056.67 3420.04 3053.85 3420.04 3050.46C3420.04 3047.69 3420.82 3045.24 3422.37 3043.11C3423.95 3040.98 3426.09 3039.31 3428.8 3038.09C3431.52 3036.88 3434.61 3036.27 3438.07 3036.27C3442.92 3036.27 3446.74 3037.34 3449.51 3039.47C3452.3 3041.6 3454.28 3044.41 3455.45 3047.9ZM3496.64 3087.02C3492.21 3087.02 3488.32 3085.97 3484.98 3083.86C3481.65 3081.75 3479.05 3078.8 3477.18 3075.01C3475.33 3071.21 3474.4 3066.78 3474.4 3061.71C3474.4 3056.6 3475.33 3052.13 3477.18 3048.32C3479.05 3044.5 3481.65 3041.54 3484.98 3039.43C3488.32 3037.32 3492.21 3036.27 3496.64 3036.27C3501.08 3036.27 3504.95 3037.32 3508.28 3039.43C3511.62 3041.54 3514.22 3044.5 3516.08 3048.32C3517.95 3052.13 3518.89 3056.6 3518.89 3061.71C3518.89 3066.78 3517.95 3071.21 3516.08 3075.01C3514.22 3078.8 3511.62 3081.75 3508.28 3083.86C3504.95 3085.97 3501.08 3087.02 3496.64 3087.02ZM3496.64 3080.25C3500.01 3080.25 3502.78 3079.38 3504.95 3077.66C3507.13 3075.93 3508.74 3073.66 3509.78 3070.85C3510.82 3068.04 3511.35 3064.99 3511.35 3061.71C3511.35 3058.43 3510.82 3055.37 3509.78 3052.54C3508.74 3049.7 3507.13 3047.41 3504.95 3045.67C3502.78 3043.92 3500.01 3043.05 3496.64 3043.05C3493.28 3043.05 3490.51 3043.92 3488.33 3045.67C3486.16 3047.41 3484.55 3049.7 3483.51 3052.54C3482.46 3055.37 3481.94 3058.43 3481.94 3061.71C3481.94 3064.99 3482.46 3068.04 3483.51 3070.85C3484.55 3073.66 3486.16 3075.93 3488.33 3077.66C3490.51 3079.38 3493.28 3080.25 3496.64 3080.25ZM3549.37 3020.55L3548.73 3067.59H3541.32L3540.68 3020.55H3549.37ZM3545.03 3086.51C3543.45 3086.51 3542.1 3085.95 3540.97 3084.82C3539.84 3083.69 3539.27 3082.34 3539.27 3080.76C3539.27 3079.18 3539.84 3077.83 3540.97 3076.7C3542.1 3075.57 3543.45 3075.01 3545.03 3075.01C3546.6 3075.01 3547.96 3075.57 3549.09 3076.7C3550.21 3077.83 3550.78 3079.18 3550.78 3080.76C3550.78 3081.8 3550.51 3082.76 3549.98 3083.63C3549.47 3084.51 3548.78 3085.21 3547.9 3085.74C3547.05 3086.26 3546.09 3086.51 3545.03 3086.51Z" fill="black"/>
</svg>
